<svg version="1.1" id="el_4BZohWYNem" xmlns="http://www.w3.org/2000/svg" xmlns:xlink="http://www.w3.org/1999/xlink" width="64px" height="64px"  x="0px" y="0px" viewBox="0 0 63 63" style="enable-background:new 0 0 63.3 63.3;" xml:space="preserve"><style>@-webkit-keyframes el_L9OzYCWIHH_Animation{0%{opacity: 0;}75%{opacity: 0;}90%{opacity: 1;}100%{opacity: 1;}}@keyframes el_L9OzYCWIHH_Animation{0%{opacity: 0;}75%{opacity: 0;}90%{opacity: 1;}100%{opacity: 1;}}@-webkit-keyframes el_mqUNtlZ3z2_Animation{0%{opacity: 0;}75%{opacity: 0;}90%{opacity: 1;}100%{opacity: 1;}}@keyframes el_mqUNtlZ3z2_Animation{0%{opacity: 0;}75%{opacity: 0;}90%{opacity: 1;}100%{opacity: 1;}}@-webkit-keyframes el_qMeLhgFB0k_AVWqlo_Yo_Animation{50%{-webkit-transform: rotate(90deg);transform: rotate(90deg);}75%{-webkit-transform: rotate(0deg);transform: rotate(0deg);}0%{-webkit-transform: rotate(90deg);transform: rotate(90deg);}100%{-webkit-transform: rotate(0deg);transform: rotate(0deg);}}@keyframes el_qMeLhgFB0k_AVWqlo_Yo_Animation{50%{-webkit-transform: rotate(90deg);transform: rotate(90deg);}75%{-webkit-transform: rotate(0deg);transform: rotate(0deg);}0%{-webkit-transform: rotate(90deg);transform: rotate(90deg);}100%{-webkit-transform: rotate(0deg);transform: rotate(0deg);}}@-webkit-keyframes el_qMeLhgFB0k_Animation{0%{opacity: 0;}65%{opacity: 0;}75%{opacity: 1;}100%{opacity: 1;}}@keyframes el_qMeLhgFB0k_Animation{0%{opacity: 0;}65%{opacity: 0;}75%{opacity: 1;}100%{opacity: 1;}}@-webkit-keyframes el_2d4xhG_iDc_Animation{0%{opacity: 0;}50%{opacity: 0;}65%{opacity: 1;}100%{opacity: 1;}}@keyframes el_2d4xhG_iDc_Animation{0%{opacity: 0;}50%{opacity: 0;}65%{opacity: 1;}100%{opacity: 1;}}@-webkit-keyframes el_x62EAq-_oc_Animation{0%{opacity: 0;}50%{opacity: 0;}65%{opacity: 1;}100%{opacity: 1;}}@keyframes el_x62EAq-_oc_Animation{0%{opacity: 0;}50%{opacity: 0;}65%{opacity: 1;}100%{opacity: 1;}}@-webkit-keyframes el_9hwGKq29xA_fNdT7Xnfb_Animation{0%{-webkit-transform: rotate(270deg);transform: rotate(270deg);}50%{-webkit-transform: rotate(0deg);transform: rotate(0deg);}100%{-webkit-transform: rotate(0deg);transform: rotate(0deg);}}@keyframes el_9hwGKq29xA_fNdT7Xnfb_Animation{0%{-webkit-transform: rotate(270deg);transform: rotate(270deg);}50%{-webkit-transform: rotate(0deg);transform: rotate(0deg);}100%{-webkit-transform: rotate(0deg);transform: rotate(0deg);}}@-webkit-keyframes el_9hwGKq29xA_Animation{0%{opacity: 0;}50%{opacity: 1;}100%{opacity: 1;}}@keyframes el_9hwGKq29xA_Animation{0%{opacity: 0;}50%{opacity: 1;}100%{opacity: 1;}}#el_4BZohWYNem *{-webkit-animation-duration: 2s;animation-duration: 2s;-webkit-animation-iteration-count: infinite;animation-iteration-count: infinite;-webkit-animation-timing-function: cubic-bezier(0, 0, 1, 1);animation-timing-function: cubic-bezier(0, 0, 1, 1);}#el_9hwGKq29xA{fill: #9BEFE0;-webkit-animation-name: el_9hwGKq29xA_Animation;animation-name: el_9hwGKq29xA_Animation;opacity: 0;}#el_x62EAq-_oc{fill: #9BEFE0;-webkit-animation-name: el_x62EAq-_oc_Animation;animation-name: el_x62EAq-_oc_Animation;opacity: 0;}#el_2d4xhG_iDc{fill: #9BEFE0;-webkit-transform: matrix(0.6392, -0.769, 0.769, 0.6392, 13.2594, 34.443);transform: matrix(0.6392, -0.769, 0.769, 0.6392, 13.2594, 34.443);-webkit-animation-name: el_2d4xhG_iDc_Animation;animation-name: el_2d4xhG_iDc_Animation;opacity: 0;}#el_qMeLhgFB0k{fill: #9BEFE0;-webkit-animation-name: el_qMeLhgFB0k_Animation;animation-name: el_qMeLhgFB0k_Animation;opacity: 0;}#el_mqUNtlZ3z2{fill: #9BEFE0;-webkit-animation-name: el_mqUNtlZ3z2_Animation;animation-name: el_mqUNtlZ3z2_Animation;opacity: 0;}#el_L9OzYCWIHH{fill: #9BEFE0;-webkit-animation-name: el_L9OzYCWIHH_Animation;animation-name: el_L9OzYCWIHH_Animation;opacity: 0;}#el_9hwGKq29xA_fNdT7Xnfb{-webkit-animation-name: el_9hwGKq29xA_fNdT7Xnfb_Animation;animation-name: el_9hwGKq29xA_fNdT7Xnfb_Animation;-webkit-transform-origin: 50% 50%;transform-origin: 50% 50%;transform-box: fill-box;-webkit-transform: rotate(270deg);transform: rotate(270deg);}#el_qMeLhgFB0k_AVWqlo_Yo{-webkit-animation-name: el_qMeLhgFB0k_AVWqlo_Yo_Animation;animation-name: el_qMeLhgFB0k_AVWqlo_Yo_Animation;-webkit-transform-origin: 50% 50%;transform-origin: 50% 50%;transform-box: fill-box;-webkit-transform: rotate(90deg);transform: rotate(90deg);}</style>

<title>logo</title>
<g id="el_9hwGKq29xA_fNdT7Xnfb" data-animator-group="true" data-animator-type="1"><path id="el_9hwGKq29xA" d="M59.8,17.1c-2.2-4.3-5.4-8.1-9.3-11c-0.6-0.4-1.4-0.3-1.8,0.3C48.3,7,48.4,7.8,49,8.2&#10;&#9;c3.6,2.7,6.5,6.1,8.6,10.1c2.1,4.1,3.2,8.7,3.2,13.3c0,16-13,29-29.1,29.1c-16,0-29-13-29.1-29.1c0-16,13-29,29.1-29.1&#10;&#9;c0.7,0,1.3-0.6,1.3-1.3S32.3,0,31.6,0C14.2,0,0,14.1,0,31.6s14.2,31.6,31.6,31.6c17.5,0,31.6-14.2,31.6-31.6&#10;&#9;C63.3,26.6,62.1,21.6,59.8,17.1z"/></g>
<circle id="el_x62EAq-_oc" cx="46.4" cy="5.2" r="1.1"/>
<ellipse id="el_2d4xhG_iDc" cx="43.3" cy="3.1" rx="1.1" ry="1.1"/>
<g id="el_qMeLhgFB0k_AVWqlo_Yo" data-animator-group="true" data-animator-type="1"><path id="el_qMeLhgFB0k" d="M45.2,24.8c-1.9,0-3.6,0.8-4.8,2.2l-10-6c0.3-0.8,0.5-1.6,0.5-2.4c0-3.5-2.8-6.3-6.3-6.3&#10;&#9;s-6.3,2.8-6.3,6.3c0,3,2.2,5.6,5.1,6.2v14.3c-3,0.6-5.1,3.2-5.1,6.2c0,3.5,2.8,6.3,6.3,6.3s6.3-2.8,6.3-6.3c0-3-2.2-5.6-5.1-6.2&#10;&#9;V24.9c1.3-0.2,2.5-0.9,3.4-1.8l10.1,6.1c-0.2,0.6-0.3,1.3-0.3,2c0,1,0.2,1.9,0.6,2.8l-3,2c-0.5,0.4-0.7,1.1-0.4,1.6&#10;&#9;c0.4,0.5,1.1,0.7,1.6,0.3l3.2-2c1.2,1.1,2.7,1.6,4.2,1.6c3.5,0,6.3-2.8,6.3-6.3C51.5,27.7,48.7,24.9,45.2,24.8L45.2,24.8z&#10;&#9; M28.6,45.4c0,2.3-1.8,4.1-4.1,4.1l0,0c-2.3,0-4.1-1.8-4.1-4.1l0,0c0-2.3,1.8-4.1,4.1-4.1l0,0C26.7,41.3,28.6,43.2,28.6,45.4&#10;&#9;L28.6,45.4L28.6,45.4z M24.4,22.8c-2.3,0-4.1-1.8-4.1-4.1l0,0c0-2.3,1.8-4.1,4.1-4.1l0,0c2.3,0,4.1,1.8,4.1,4.1l0,0&#10;&#9;C28.6,20.9,26.7,22.8,24.4,22.8L24.4,22.8L24.4,22.8z M45.2,35.3c-2.3,0-4.1-1.9-4.1-4.1l0,0c0-2.3,1.8-4.1,4.1-4.1l0,0&#10;&#9;c2.3,0,4.1,1.8,4.1,4.1l0,0C49.3,33.4,47.4,35.3,45.2,35.3L45.2,35.3z"/></g>
<circle id="el_mqUNtlZ3z2" cx="31.5" cy="40.6" r="1.1"/>
<circle id="el_L9OzYCWIHH" cx="34.3" cy="38.8" r="1.1"/>
<script>(function(){var a=document.querySelector('#el_4BZohWYNem'),b=a.querySelectorAll('style'),c=function(d){b.forEach(function(f){var g=f.textContent;g&amp;&amp;(f.textContent=g.replace(/transform-box:[^;\r\n]*/gi,'transform-box: '+d))})};c('initial'),window.requestAnimationFrame(function(){return c('fill-box')})})();</script></svg>