<?xml version="1.0" encoding="utf-8"?>
<!-- Generator: Adobe Illustrator 19.2.1, SVG Export Plug-In . SVG Version: 6.00 Build 0)  -->
<svg version="1.1" id="Camada_1" xmlns="http://www.w3.org/2000/svg" xmlns:xlink="http://www.w3.org/1999/xlink" x="0px" y="0px"
	 viewBox="0 0 16 16" style="enable-background:new 0 0 16 16;" xml:space="preserve">
<style type="text/css">
	.st0{fill:#5E6185;}
	.st1{fill:#FFFFFF;}
</style>
<g>
	<g>
		<path class="st0" d="M0.2,8L0.2,8c0-4.2,3.4-7.8,7.8-7.8l0,0c4.2,0,7.8,3.4,7.8,7.8l0,0c0,4.2-3.4,7.8-7.8,7.8l0,0
			C3.7,15.7,0.2,12.2,0.2,8z"/>
		<path class="st0" d="M8,16c-4.4,0-8-3.6-8-8s3.6-8,8-8s8,3.6,8,8S12.3,16,8,16z M8,0.6C3.9,0.6,0.6,3.9,0.6,8s3.3,7.4,7.4,7.4
			s7.4-3.3,7.4-7.4S12,0.6,8,0.6z"/>
	</g>
	<path class="st1" d="M8,10.3c-0.1,0-0.2,0-0.3-0.1L4.2,6.8c-0.1-0.1-0.1-0.3,0-0.4s0.3-0.1,0.4,0L8,9.7l3.3-3.3
		c0.1-0.1,0.3-0.1,0.4,0c0.1,0.1,0.1,0.3,0,0.4l-3.4,3.4C8.2,10.3,8.1,10.3,8,10.3z"/>
</g>
</svg>
