<?xml version="1.0" encoding="utf-8"?>
<!-- Generator: Adobe Illustrator 19.2.1, SVG Export Plug-In . SVG Version: 6.00 Build 0)  -->
<svg version="1.1" id="Camada_1" xmlns="http://www.w3.org/2000/svg" xmlns:xlink="http://www.w3.org/1999/xlink" x="0px" y="0px"
	 viewBox="0 0 16 16" style="enable-background:new 0 0 16 16;" xml:space="preserve">
<style type="text/css">
	.st0{fill:#5E6185;}
	.st1{fill:#FFFFFF;}
</style>
<g>
	<g>
		<path class="st0" d="M8,15.7L8,15.7c-4.3,0-7.7-3.4-7.7-7.7l0,0c0-4.3,3.4-7.7,7.7-7.7l0,0c4.3,0,7.7,3.4,7.7,7.7l0,0
			C15.7,12.3,12.3,15.7,8,15.7z"/>
		<path class="st0" d="M8,16c-4.4,0-8-3.6-8-8s3.6-8,8-8s8,3.6,8,8S12.5,16,8,16z M8,0.7C3.9,0.7,0.7,3.9,0.7,8S4,15.3,8,15.3
			S15.3,12,15.3,8C15.4,3.9,12.2,0.7,8,0.7z"/>
	</g>
	<path class="st1" d="M6.7,11.8c-0.1,0-0.1,0-0.2-0.1s-0.1-0.3,0-0.4L9.8,8L6.5,4.7c-0.1-0.1-0.1-0.3,0-0.4s0.3-0.1,0.4,0l3.4,3.4
		c0.2,0.2,0.2,0.5,0,0.8l-3.4,3.4C6.8,11.8,6.7,11.8,6.7,11.8z"/>
</g>
</svg>
