<?xml version="1.0" encoding="utf-8"?>
<!-- Generator: Adobe Illustrator 19.2.1, SVG Export Plug-In . SVG Version: 6.00 Build 0)  -->
<svg version="1.1" id="Camada_1" xmlns="http://www.w3.org/2000/svg" xmlns:xlink="http://www.w3.org/1999/xlink" x="0px" y="0px"
	 viewBox="0 0 16 16" style="enable-background:new 0 0 16 16;" xml:space="preserve">
<style type="text/css">
	.st0{fill:#5E6185;}
	.st1{fill:#FFFFFF;}
</style>
<g>
	<circle class="st0" cx="8" cy="8" r="8"/>
	<path class="st1" d="M8.4,8L11,5.4c0.1-0.1,0.1-0.3,0-0.4s-0.3-0.1-0.4,0L8,7.6L5.4,4.9C5.3,4.8,5,4.8,4.9,4.9s-0.1,0.4,0,0.5
		L7.6,8L5,10.6c-0.1,0.1-0.1,0.3,0,0.4c0,0.2,0,0.2,0.2,0.2c0.1,0,0.1,0,0.2-0.1L8,8.4l2.6,2.6c0.1,0.1,0.1,0.1,0.2,0.1
		c0.1,0,0.1,0,0.2-0.1c0.1-0.1,0.1-0.3,0-0.4L8.4,8z"/>
</g>
</svg>
