<?xml version="1.0" encoding="utf-8"?>
<!-- Generator: Adobe Illustrator 19.2.1, SVG Export Plug-In . SVG Version: 6.00 Build 0)  -->
<svg version="1.1" id="Camada_1" xmlns="http://www.w3.org/2000/svg" xmlns:xlink="http://www.w3.org/1999/xlink" x="0px" y="0px"
	 viewBox="0 0 32 32" style="enable-background:new 0 0 32 32;" xml:space="preserve">
<style type="text/css">
	.st0{fill:#232323;}
</style>
<g>
	<path class="st0" d="M9.2,8.6c0.5,7.6,6.6,13.7,14.2,14.2c0.3,0,0.5,0.3,0.5,0.6c0,0.3-0.3,0.5-0.6,0.5C15.2,23.3,8.6,16.8,8.1,8.6
		c0-0.3,0.3-0.6,0.5-0.6l0,0C9,8.1,9.2,8.3,9.2,8.6z"/>
	<path d="M23.4,22.8c-3.7-0.2-7.1-1.8-9.6-4.3c-0.3,0.2-0.6,0.5-0.9,0.7c2.7,2.7,6.4,4.4,10.4,4.8c0.4,0,0.6-0.1,0.6-0.5
		C23.9,23,23.7,22.8,23.4,22.8z"/>
</g>
</svg>
