<?xml version="1.0" encoding="utf-8"?>
<!-- Generator: Adobe Illustrator 19.2.1, SVG Export Plug-In . SVG Version: 6.00 Build 0)  -->
<svg version="1.1" id="Camada_1" xmlns="http://www.w3.org/2000/svg" xmlns:xlink="http://www.w3.org/1999/xlink" x="0px" y="0px"
	 viewBox="0 0 32 32" style="enable-background:new 0 0 32 32;" xml:space="preserve">
<style type="text/css">
	.st0{fill:#030104;}
</style>
<g>
	<path class="st0" d="M16,4.7C9.8,4.7,4.7,9.8,4.7,16S9.8,27.3,16,27.3S27.3,22.2,27.3,16S22.2,4.7,16,4.7z M18.3,22.1
		c-0.6,0.3-1,0.4-1.5,0.6c-0.3,0.1-0.7,0.1-1.1,0.1c-0.7,0-1.3-0.1-1.6-0.6c-0.4-0.3-0.6-0.7-0.6-1.3c0-0.1,0-0.4,0-0.6
		c0-0.1,0.1-0.4,0.1-0.7l0.7-2.6c0-0.3,0.1-0.4,0.1-0.7c0-0.3,0-0.4,0-0.6c0-0.3,0-0.6-0.1-0.7c-0.1-0.1-0.4-0.1-0.7-0.1
		c-0.1,0-0.4,0-0.6,0.1c-0.1,0-0.4,0.1-0.4,0.1l0.1-0.7c0.4-0.1,0.8-0.3,1.3-0.4c0.4-0.1,0.8-0.1,1.1-0.1c0.7,0,1.3,0.1,1.6,0.4
		c0.4,0.3,0.6,0.7,0.6,1.3c0,0.1,0,0.3,0,0.6c0,0.3-0.1,0.6-0.1,0.7l-0.7,2.6c0,0.1-0.1,0.4-0.1,0.7c0,0.3,0,0.4,0,0.6
		c0,0.3,0.1,0.6,0.3,0.7c0.1,0.1,0.4,0.1,0.7,0.1c0.1,0,0.4,0,0.6-0.1c0.3,0,0.4-0.1,0.4-0.1L18.3,22.1z M18.2,11.6
		c-0.3,0.3-0.7,0.4-1.1,0.4s-0.8-0.1-1.1-0.4c-0.3-0.3-0.4-0.7-0.4-1.1c0-0.4,0.1-0.8,0.4-1.1C16.2,9.1,16.6,9,17.1,9
		s0.8,0.1,1.1,0.4c0.3,0.4,0.6,0.7,0.6,1.1C18.7,11.1,18.5,11.4,18.2,11.6z"/>
</g>
</svg>
