<?xml version="1.0" encoding="utf-8"?>
<!-- Generator: Adobe Illustrator 19.2.1, SVG Export Plug-In . SVG Version: 6.00 Build 0)  -->
<svg version="1.1" id="Camada_1" xmlns="http://www.w3.org/2000/svg" xmlns:xlink="http://www.w3.org/1999/xlink" x="0px" y="0px"
	 viewBox="0 0 32 32" style="enable-background:new 0 0 32 32;" xml:space="preserve">
<style type="text/css">
	.st0{fill:#AC92EB;}
	.st1{fill:#EA57B6;}
	.st2{fill:#FC6E51;}
	.st3{fill:#ED5564;}
	.st4{fill:#5D9CEC;}
	.st5{fill:#4FC2E9;}
	.st6{fill:#FFCE54;}
	.st7{fill:#48CFAD;}
</style>
<g>
	<path class="st0" d="M16,4.7V16l7.9-8.1C21.9,6,19,4.7,16,4.7z"/>
	<path class="st1" d="M23.9,7.9L16,16h11.3C27.3,12.8,26,10.1,23.9,7.9z"/>
	<path class="st2" d="M16,27.3V16l7.9,8.1C21.9,26,19,27.3,16,27.3z"/>
	<path class="st3" d="M23.9,24.1L16,16h11.3C27.3,19.2,26,21.9,23.9,24.1z"/>
	<path class="st4" d="M16,4.7V16L8.1,7.9C10.1,6,13,4.7,16,4.7z"/>
	<path class="st5" d="M8.1,7.9L16,16H4.7C4.7,12.8,6,10.1,8.1,7.9z"/>
	<path class="st6" d="M16,27.3V16l-7.9,8.1C10.1,26,13,27.3,16,27.3z"/>
	<path class="st7" d="M8.1,24.1L16,16H4.7C4.7,19.2,6,21.9,8.1,24.1z"/>
</g>
</svg>
