<?xml version="1.0" encoding="utf-8"?>
<!-- Generator: Adobe Illustrator 19.2.1, SVG Export Plug-In . SVG Version: 6.00 Build 0)  -->
<svg version="1.1" id="Camada_1" xmlns="http://www.w3.org/2000/svg" xmlns:xlink="http://www.w3.org/1999/xlink" x="0px" y="0px"
	 viewBox="0 0 32 32" style="enable-background:new 0 0 32 32;" xml:space="preserve">
<style type="text/css">
	.st0{opacity:0.5;fill:#5E6185;}
</style>
<g>
	<path class="st0" d="M16,0.8C7.6,0.8,0.8,7.6,0.8,16c0,8.4,6.8,15.2,15.2,15.2c8.4,0,15.2-6.8,15.2-15.2C31.2,7.6,24.4,0.8,16,0.8z
		 M23.4,23.7c-0.1,0.1-0.1,0.1-0.2,0.1c-0.1,0-0.2,0-0.2-0.1l-4.4-4.6c-1.1,0.9-2.4,1.4-3.9,1.4c-3.4,0-6.2-2.8-6.2-6.2
		s2.8-6.2,6.2-6.2s6.2,2.8,6.2,6.2c0,1.7-0.7,3.2-1.8,4.4l4.4,4.6C23.5,23.4,23.5,23.6,23.4,23.7z"/>
	<path class="st0" d="M14.7,8.8c-3.1,0-5.6,2.5-5.6,5.6s2.5,5.6,5.6,5.6s5.6-2.5,5.6-5.6S17.8,8.8,14.7,8.8z M16.7,14.7H15v1.8
		c0,0.2-0.1,0.3-0.3,0.3s-0.3-0.1-0.3-0.3v-1.8h-1.8c-0.2,0-0.3-0.1-0.3-0.3s0.1-0.3,0.3-0.3h1.8v-1.8c0-0.2,0.1-0.3,0.3-0.3
		s0.3,0.1,0.3,0.3v1.8h1.8c0.2,0,0.3,0.1,0.3,0.3S16.9,14.7,16.7,14.7z"/>
</g>
</svg>
