<?xml version="1.0" encoding="utf-8"?>
<!-- Generator: Adobe Illustrator 19.2.1, SVG Export Plug-In . SVG Version: 6.00 Build 0)  -->
<svg version="1.1" id="Camada_1" xmlns="http://www.w3.org/2000/svg" xmlns:xlink="http://www.w3.org/1999/xlink" x="0px" y="0px"
	 viewBox="0 0 32 32" style="enable-background:new 0 0 32 32;" xml:space="preserve">
<style type="text/css">
	.st0{opacity:0.5;fill:#5E6185;}
</style>
<circle class="st0" cx="14.7" cy="14.4" r="5.6"/>
<path class="st0" d="M16,0.8C7.6,0.8,0.8,7.6,0.8,16c0,8.4,6.8,15.2,15.2,15.2c8.4,0,15.2-6.8,15.2-15.2C31.2,7.6,24.4,0.8,16,0.8z
	 M23.4,23.7c-0.1,0.1-0.1,0.1-0.2,0.1c-0.1,0-0.2,0-0.2-0.1l-4.4-4.6c-1.1,0.9-2.4,1.4-3.9,1.4h0l0,0c-2.1,0-4-1.1-5.1-2.7
	c-0.7-1-1.1-2.2-1.1-3.5s0.4-2.5,1.1-3.5c1.1-1.6,3-2.7,5.1-2.7h0l0,0c3.4,0,6.2,2.8,6.2,6.2c0,1.7-0.7,3.3-1.8,4.4l4.4,4.6
	c0.1,0.1,0.1,0.1,0.1,0.2S23.5,23.7,23.4,23.7z"/>
</svg>
