<?xml version="1.0" encoding="utf-8"?>
<!-- Generator: Adobe Illustrator 19.2.1, SVG Export Plug-In . SVG Version: 6.00 Build 0)  -->
<svg version="1.1" id="Camada_1" xmlns="http://www.w3.org/2000/svg" xmlns:xlink="http://www.w3.org/1999/xlink" x="0px" y="0px"
	 viewBox="0 0 796 623" style="enable-background:new 0 0 796 623;" xml:space="preserve">
<style type="text/css">
	.st0{fill:none;stroke:#595959;stroke-width:2;stroke-miterlimit:10;}
	.st1{fill:#9BEFE0;stroke:#595959;stroke-width:2;stroke-miterlimit:10;}
	.st2{clip-path:url(#SVGID_2_);}
	.st3{clip-path:url(#SVGID_6_);}
	.st4{clip-path:url(#SVGID_8_);}
	.st5{clip-path:url(#SVGID_12_);}
	.st6{clip-path:url(#SVGID_14_);}
	.st7{clip-path:url(#SVGID_18_);}
	.st8{clip-path:url(#SVGID_20_);}
	.st9{fill:#50364F;stroke:#595959;stroke-width:2;stroke-miterlimit:10;}
	.st10{font-family:'Roboto-Light';}
	.st11{font-size:36px;}
	.st12{font-family:'OpenSans-Light';}
	.st13{clip-path:url(#SVGID_24_);}
	.st14{clip-path:url(#SVGID_26_);}
	.st15{clip-path:url(#SVGID_30_);}
	.st16{clip-path:url(#SVGID_32_);}
	.st17{clip-path:url(#SVGID_36_);}
	.st18{clip-path:url(#SVGID_38_);}
	.st19{clip-path:url(#SVGID_42_);}
	.st20{fill:#595959;}
</style>
<g>
	<line class="st0" x1="69" y1="305.5" x2="315.7" y2="365.3"/>
	<line class="st0" x1="69" y1="377.5" x2="327.6" y2="140.5"/>
	<line class="st0" x1="314.5" y1="375.5" x2="69" y2="377.5"/>
	<line class="st0" x1="69" y1="519.4" x2="314.5" y2="514.8"/>
	<line class="st0" x1="69" y1="449.5" x2="314.5" y2="503.3"/>
	<line class="st0" x1="69" y1="377.5" x2="316.9" y2="494.5"/>
	<line class="st0" x1="314.5" y1="103.1" x2="69" y2="86.8"/>
	<line class="st0" x1="69" y1="158.9" x2="314.5" y2="115.8"/>
	<line class="st0" x1="314.5" y1="233.8" x2="69" y2="158.9"/>
	<line class="st0" x1="69" y1="231" x2="319.1" y2="128.3"/>
	<g>
		<g>
			<g>
				<path class="st1" d="M361.8,157.3c-27.2,0-49.3-22.1-49.3-49.3s22.1-49.3,49.3-49.3c27.2,0,49.3,22.1,49.3,49.3
					S389,157.3,361.8,157.3z M361.8,63.7c-24.4,0-44.3,19.9-44.3,44.3s19.9,44.3,44.3,44.3c24.4,0,44.3-19.9,44.3-44.3
					S386.2,63.7,361.8,63.7z"/>
			</g>
		</g>
		<g>
			<defs>
				<circle id="SVGID_1_" cx="361.8" cy="108" r="39"/>
			</defs>
			<clipPath id="SVGID_2_">
				<use xlink:href="#SVGID_1_"  style="overflow:visible;"/>
			</clipPath>
			<g class="st2">
				<defs>
					<rect id="SVGID_3_" x="200.8" y="28.5" width="305.1" height="305.1"/>
				</defs>
				<clipPath id="SVGID_4_">
					<use xlink:href="#SVGID_3_"  style="overflow:visible;"/>
				</clipPath>
				<g style="clip-path:url(#SVGID_4_);">
					
						<image style="overflow:visible;" width="640" height="640" xlink:href="D651478.jpg"  transform="matrix(0.4768 0 0 0.4768 200.8102 28.4594)">
					</image>
				</g>
			</g>
		</g>
	</g>
	<g>
		<g>
			<g>
				<path class="st1" d="M361.3,291.1c-27.2,0-49.3-22.1-49.3-49.3c0-27.2,22.1-49.3,49.3-49.3s49.3,22.1,49.3,49.3
					C410.6,268.9,388.5,291.1,361.3,291.1z M361.3,197.5c-24.4,0-44.3,19.9-44.3,44.3c0,24.4,19.9,44.3,44.3,44.3
					s44.3-19.9,44.3-44.3C405.6,217.4,385.7,197.5,361.3,197.5z"/>
			</g>
		</g>
		<g>
			<defs>
				<circle id="SVGID_5_" cx="361.3" cy="241.8" r="39"/>
			</defs>
			<clipPath id="SVGID_6_">
				<use xlink:href="#SVGID_5_"  style="overflow:visible;"/>
			</clipPath>
			<g class="st3">
				<defs>
					<rect id="SVGID_7_" x="200.3" y="162.2" width="305.1" height="305.1"/>
				</defs>
				<clipPath id="SVGID_8_">
					<use xlink:href="#SVGID_7_"  style="overflow:visible;"/>
				</clipPath>
				<g class="st4">
					<defs>
						<rect id="SVGID_9_" x="304.7" y="195" width="106.5" height="106.5"/>
					</defs>
					<clipPath id="SVGID_10_">
						<use xlink:href="#SVGID_9_"  style="overflow:visible;"/>
					</clipPath>
					<g style="clip-path:url(#SVGID_10_);">
						
							<image style="overflow:visible;" width="640" height="640" xlink:href="D651479.jpg"  transform="matrix(0.1664 0 0 0.1664 304.7408 194.9908)">
						</image>
					</g>
				</g>
			</g>
		</g>
	</g>
	<g>
		<g>
			<g>
				<path class="st1" d="M361.3,424.8c-27.2,0-49.3-22.1-49.3-49.3s22.1-49.3,49.3-49.3s49.3,22.1,49.3,49.3
					S388.5,424.8,361.3,424.8z M361.3,331.2c-24.4,0-44.3,19.9-44.3,44.3s19.9,44.3,44.3,44.3s44.3-19.9,44.3-44.3
					S385.7,331.2,361.3,331.2z"/>
			</g>
		</g>
		<g>
			<defs>
				<circle id="SVGID_11_" cx="361.3" cy="375.5" r="39"/>
			</defs>
			<clipPath id="SVGID_12_">
				<use xlink:href="#SVGID_11_"  style="overflow:visible;"/>
			</clipPath>
			<g class="st5">
				<defs>
					<rect id="SVGID_13_" x="200.3" y="296" width="305.1" height="305.1"/>
				</defs>
				<clipPath id="SVGID_14_">
					<use xlink:href="#SVGID_13_"  style="overflow:visible;"/>
				</clipPath>
				<g class="st6">
					<defs>
						<rect id="SVGID_15_" x="313" y="324" width="99.5" height="99.5"/>
					</defs>
					<clipPath id="SVGID_16_">
						<use xlink:href="#SVGID_15_"  style="overflow:visible;"/>
					</clipPath>
					<g style="clip-path:url(#SVGID_16_);">
						
							<image style="overflow:visible;" width="640" height="640" xlink:href="D65147F.jpg"  transform="matrix(0.1555 0 0 0.1555 313.0414 324.0277)">
						</image>
					</g>
				</g>
			</g>
		</g>
	</g>
	<g>
		<g>
			<g>
				<path class="st1" d="M361.3,558.6c-27.2,0-49.3-22.1-49.3-49.3s22.1-49.3,49.3-49.3s49.3,22.1,49.3,49.3
					S388.5,558.6,361.3,558.6z M361.3,465c-24.4,0-44.3,19.9-44.3,44.3s19.9,44.3,44.3,44.3s44.3-19.9,44.3-44.3
					S385.7,465,361.3,465z"/>
			</g>
		</g>
		<g>
			<defs>
				<circle id="SVGID_17_" cx="361.3" cy="509.3" r="39"/>
			</defs>
			<clipPath id="SVGID_18_">
				<use xlink:href="#SVGID_17_"  style="overflow:visible;"/>
			</clipPath>
			<g class="st7">
				<defs>
					<rect id="SVGID_19_" x="200.3" y="429.7" width="305.1" height="305.1"/>
				</defs>
				<clipPath id="SVGID_20_">
					<use xlink:href="#SVGID_19_"  style="overflow:visible;"/>
				</clipPath>
				<g class="st8">
					<defs>
						<rect id="SVGID_21_" x="320.3" y="464" width="81" height="108.5"/>
					</defs>
					<clipPath id="SVGID_22_">
						<use xlink:href="#SVGID_21_"  style="overflow:visible;"/>
					</clipPath>
					<g style="clip-path:url(#SVGID_22_);">
						
							<image style="overflow:visible;" width="1000" height="1340" xlink:href="D65147A.jpg"  transform="matrix(8.096480e-002 0 0 8.097013e-002 320.3298 463.9908)">
						</image>
					</g>
				</g>
			</g>
		</g>
	</g>
	<circle class="st9" cx="69.4" cy="86.8" r="20.4"/>
	<circle class="st9" cx="69.3" cy="158.9" r="20.4"/>
	<circle class="st9" cx="69.3" cy="231" r="20.4"/>
	<circle class="st9" cx="69.3" cy="303.1" r="20.4"/>
	<circle class="st9" cx="69.3" cy="375.2" r="20.4"/>
	<circle class="st9" cx="69.3" cy="447.3" r="20.4"/>
	<circle class="st9" cx="69.3" cy="519.4" r="20.4"/>
	<g>
		<text transform="matrix(1 0 0 1 58.6689 610.4924)" class="st10 st11">S</text>
	</g>
	<g>
		<text transform="matrix(1 0 0 1 350.569 610.4921)" class="st10 st11">A</text>
	</g>
	<g>
		<text transform="matrix(1 0 0 1 12.315 33.5491)" class="st10 st11">Singles</text>
	</g>
	<g>
		<text transform="matrix(1 0 0 1 311.1064 33.5489)" class="st12 st11">Artists</text>
	</g>
	<line class="st0" x1="630.1" y1="432.3" x2="655.7" y2="379.4"/>
	<line class="st0" x1="689" y1="376.5" x2="716.5" y2="433"/>
	<line class="st0" x1="659.1" y1="475.6" x2="689" y2="475.6"/>
	<line class="st0" x1="672.7" y1="285.8" x2="672.7" y2="241.6"/>
	<g>
		<g>
			<path class="st1" d="M735.8,523.9c-26.6,0-48.3-21.7-48.3-48.3s21.7-48.3,48.3-48.3s48.3,21.7,48.3,48.3S762.4,523.9,735.8,523.9
				z M735.8,430.3c-25,0-45.3,20.3-45.3,45.3s20.3,45.3,45.3,45.3s45.3-20.3,45.3-45.3S760.8,430.3,735.8,430.3z"/>
		</g>
		<g>
			<defs>
				<circle id="SVGID_23_" cx="735.8" cy="475.6" r="39"/>
			</defs>
			<clipPath id="SVGID_24_">
				<use xlink:href="#SVGID_23_"  style="overflow:visible;"/>
			</clipPath>
			<g class="st13">
				<defs>
					<rect id="SVGID_25_" x="574.8" y="396" width="305.1" height="305.1"/>
				</defs>
				<clipPath id="SVGID_26_">
					<use xlink:href="#SVGID_25_"  style="overflow:visible;"/>
				</clipPath>
				<g class="st14">
					<defs>
						<rect id="SVGID_27_" x="694.8" y="430.3" width="81" height="108.5"/>
					</defs>
					<clipPath id="SVGID_28_">
						<use xlink:href="#SVGID_27_"  style="overflow:visible;"/>
					</clipPath>
					<g transform="matrix(1 0 0 1 6.103516e-005 0)" style="clip-path:url(#SVGID_28_);">
						
							<image style="overflow:visible;" width="1000" height="1340" xlink:href="D65147B.jpg"  transform="matrix(8.096480e-002 0 0 8.097013e-002 694.8466 430.3148)">
						</image>
					</g>
				</g>
			</g>
		</g>
	</g>
	<g>
		<g>
			<path class="st1" d="M612.3,523.9c-26.6,0-48.3-21.7-48.3-48.3s21.7-48.3,48.3-48.3s48.3,21.7,48.3,48.3S638.9,523.9,612.3,523.9
				z M612.3,430.3c-25,0-45.3,20.3-45.3,45.3s20.3,45.3,45.3,45.3s45.3-20.3,45.3-45.3S637.3,430.3,612.3,430.3z"/>
		</g>
		<g>
			<defs>
				<circle id="SVGID_29_" cx="612.3" cy="475.6" r="39"/>
			</defs>
			<clipPath id="SVGID_30_">
				<use xlink:href="#SVGID_29_"  style="overflow:visible;"/>
			</clipPath>
			<g class="st15">
				<defs>
					<rect id="SVGID_31_" x="451.3" y="396" width="305.1" height="305.1"/>
				</defs>
				<clipPath id="SVGID_32_">
					<use xlink:href="#SVGID_31_"  style="overflow:visible;"/>
				</clipPath>
				<g class="st16">
					<defs>
						<rect id="SVGID_33_" x="564.1" y="424.1" width="99.5" height="99.5"/>
					</defs>
					<clipPath id="SVGID_34_">
						<use xlink:href="#SVGID_33_"  style="overflow:visible;"/>
					</clipPath>
					<g transform="matrix(1 0 0 1 0 -3.051758e-005)" style="clip-path:url(#SVGID_34_);">
						
							<image style="overflow:visible;" width="640" height="640" xlink:href="D651476.jpg"  transform="matrix(0.1555 0 0 0.1555 564.0582 424.1024)">
						</image>
					</g>
				</g>
			</g>
		</g>
	</g>
	<g>
		<g>
			<path class="st1" d="M672.7,380.9c-26.6,0-48.3-21.7-48.3-48.3s21.7-48.3,48.3-48.3S721,306,721,332.6S699.4,380.9,672.7,380.9z
				 M672.7,287.3c-25,0-45.3,20.3-45.3,45.3s20.3,45.3,45.3,45.3s45.3-20.3,45.3-45.3S697.7,287.3,672.7,287.3z"/>
		</g>
		<g>
			<defs>
				<circle id="SVGID_35_" cx="672.7" cy="332.6" r="39"/>
			</defs>
			<clipPath id="SVGID_36_">
				<use xlink:href="#SVGID_35_"  style="overflow:visible;"/>
			</clipPath>
			<g class="st17">
				<defs>
					<rect id="SVGID_37_" x="511.7" y="253" width="305.1" height="305.1"/>
				</defs>
				<clipPath id="SVGID_38_">
					<use xlink:href="#SVGID_37_"  style="overflow:visible;"/>
				</clipPath>
				<g class="st18">
					<defs>
						<rect id="SVGID_39_" x="616.2" y="285.8" width="106.5" height="106.5"/>
					</defs>
					<clipPath id="SVGID_40_">
						<use xlink:href="#SVGID_39_"  style="overflow:visible;"/>
					</clipPath>
					<g style="clip-path:url(#SVGID_40_);">
						
							<image style="overflow:visible;" width="640" height="640" xlink:href="D651477.jpg"  transform="matrix(0.1664 0 0 0.1664 616.1872 285.8148)">
						</image>
					</g>
				</g>
			</g>
		</g>
	</g>
	<g>
		<g>
			<path class="st1" d="M672.7,243.1c-26.6,0-48.3-21.7-48.3-48.3s21.7-48.3,48.3-48.3s48.3,21.7,48.3,48.3S699.4,243.1,672.7,243.1
				z M672.7,149.6c-25,0-45.3,20.3-45.3,45.3s20.3,45.3,45.3,45.3s45.3-20.3,45.3-45.3S697.7,149.6,672.7,149.6z"/>
		</g>
		<g>
			<defs>
				<circle id="SVGID_41_" cx="672.7" cy="194.8" r="39"/>
			</defs>
			<clipPath id="SVGID_42_">
				<use xlink:href="#SVGID_41_"  style="overflow:visible;"/>
			</clipPath>
			<g class="st19">
				<defs>
					<rect id="SVGID_43_" x="511.7" y="115.3" width="305.1" height="305.1"/>
				</defs>
				<clipPath id="SVGID_44_">
					<use xlink:href="#SVGID_43_"  style="overflow:visible;"/>
				</clipPath>
				<g transform="matrix(1 0 0 1 -3.051758e-005 0)" style="clip-path:url(#SVGID_44_);">
					
						<image style="overflow:visible;" width="640" height="640" xlink:href="D651488.jpg"  transform="matrix(0.4768 0 0 0.4768 511.7402 115.2823)">
					</image>
				</g>
			</g>
		</g>
	</g>
	<path class="st20" d="M546.2,306.8L546.2,306.8l-32-23.8c-1.3-1-3-1.1-4.5-0.4c-1.5,0.7-2.4,2.2-2.4,3.9v4.2h-24.2v3h27.2v-7.2
		c0-0.7,0.5-1.1,0.7-1.2c0.2-0.1,0.8-0.3,1.4,0.1l32,23.8l0,0c0.3,0.3,0.5,0.6,0.5,1.1c0,0.4-0.2,0.8-0.5,1.1l-32,23.8
		c-0.6,0.4-1.2,0.2-1.4,0.1c-0.2-0.1-0.7-0.4-0.7-1.2v-7.2h-27.2v3h24.2v4.2c0,1.6,0.9,3.1,2.4,3.9c0.6,0.3,1.3,0.5,1.9,0.5
		c0.9,0,1.8-0.3,2.6-0.9l32-23.8c1.1-0.8,1.7-2.1,1.7-3.5C547.9,308.8,547.3,307.6,546.2,306.8z"/>
</g>
</svg>
