<svg id="Camada_1" data-name="Camada 1" xmlns="http://www.w3.org/2000/svg" viewBox="0 0 107.19 32.18"><title>cnpq</title><path d="M523.37,166.4a1.11,1.11,0,0,0,.23.06,13.65,13.65,0,0,1,9.91,5.39,12.24,12.24,0,0,1,2.3,5,13.78,13.78,0,0,1-1.6,10.2,2.18,2.18,0,0,1-.23.33,0.46,0.46,0,0,0-.08.49q1.38,5.11,2.76,10.22c0,0.12.05,0.24,0.08,0.36-0.21.06-3,.07-3.38,0,0-.12-0.09-0.26-0.13-0.39l-3.17-10.94L530,187a0.29,0.29,0,0,1,.08-0.31,9.73,9.73,0,0,0,2.44-5,9.35,9.35,0,0,0,.14-2.86,9.61,9.61,0,0,0-1.61-4.41,10,10,0,0,0-6.19-4.2,9.38,9.38,0,0,0-2.42-.27,9.57,9.57,0,0,0-6.43,2.56,9,9,0,0,0-2.91,5.36c-0.09.57-.14,1.15-0.22,1.73a2,2,0,0,1-.13.49l-2.68,6.55c0,0.11-.08.21-0.13,0.36h2.29c0,0.13,0,.23,0,0.33q0,3.66,0,7.33c0,0.12,0,.24,0,0.39h14.24l1,3.44,0,0.05H508.81c0-.12,0-0.22,0-0.32q0-2.87,0-5.74v-2.07c0-.1,0-0.19,0-0.33-0.46,0-.9,0-1.33,0h-2.67l0.12-.29,3.53-8.2c0.17-.39.31-0.78,0.48-1.17a3.52,3.52,0,0,0,.25-1.06,15.6,15.6,0,0,1,3.06-7.87,12.82,12.82,0,0,1,3.83-3.27,12.49,12.49,0,0,1,4.26-1.55c0.57-.1,1.15-0.12,1.73-0.18l0.42-.06h0.91Z" transform="translate(-504.79 -166.4)"/><path d="M578.81,173.86L575,191.61h-7c-1.1-4.49-2.18-9-3.27-13.47h-0.08l-2.7,13.46h-4.57L561,173.85h6.84c0.29,0,.29,0,0.36.28l2.86,11.77,0.17,0.67h0.06c0-.08.05-0.16,0.07-0.24l1.44-6.35,1.34-5.88c0.06-.25.06-0.26,0.31-0.26h4.08Z" transform="translate(-504.79 -166.4)"/><path d="M525.29,190.63l0.95,3.37c-0.24.06-12.61,0.07-12.89,0,0-.11,0-0.24,0-0.36q0-3.58,0-7.17c0-.13,0-0.26,0-0.43-0.58,0-1.14,0-1.75,0,0-.13.06-0.23,0.09-0.32q0.67-1.84,1.35-3.67c0.25-.67.53-1.33,0.75-2a5.34,5.34,0,0,0,.18-1,11.82,11.82,0,0,1,.45-2.15,8.31,8.31,0,0,1,2.54-3.72,8.78,8.78,0,0,1,4.41-2.07,8.54,8.54,0,0,1,5.52.95,8.51,8.51,0,0,1,4.7,6.9,9.07,9.07,0,0,1-.51,4.14,8,8,0,0,1-2.05,3.14,0.4,0.4,0,0,0-.12.47q1.69,5.75,3.37,11.5c0,0.12.06,0.25,0.1,0.39H528.9c0-.09-0.06-0.17-0.09-0.26l-2.88-10.24-0.84-3c-0.07-.26-0.07-0.26.16-0.4a5.52,5.52,0,0,0,2.14-2.06,5.29,5.29,0,0,0,0-5.42,6.55,6.55,0,0,0-.39-0.61,4.7,4.7,0,0,0-3.2-2,5.4,5.4,0,0,0-6.31,4.33,1.87,1.87,0,0,0-.06.4,2.93,2.93,0,0,1-.24,1.06l-1,2.75c0,0.1-.06.2-0.1,0.34h0.74c0,1.21,0,2.39,0,3.57s0,2.36,0,3.56c0.58,0,1.14,0,1.7,0h6.8Z" transform="translate(-504.79 -166.4)"/><path d="M584.47,185.44l-1.35,6.17h-5c0-.07,0-0.12,0-0.17q0.67-3.24,1.34-6.48l1.69-8.16,0.56-2.7c0.05-.26.06-0.26,0.31-0.26,2.63,0,5.26,0,7.89,0a11.59,11.59,0,0,1,3.31.4,10.46,10.46,0,0,1,1.49.59,2.94,2.94,0,0,1,1.65,2.27,7.47,7.47,0,0,1,0,1.93,7.25,7.25,0,0,1-.64,2.56,5.33,5.33,0,0,1-1.81,2.15,9.38,9.38,0,0,1-3.85,1.55,12.33,12.33,0,0,1-2.13.16h-3.56Zm0.79-3.48,0.25,0h2.68a2.23,2.23,0,0,0,.58-0.08,3.12,3.12,0,0,0,2.28-2.33,1.53,1.53,0,0,0-1-1.88,3.06,3.06,0,0,0-.89-0.18c-0.9,0-1.8,0-2.71,0-0.24,0-.26,0-0.31.24l-0.88,4C585.27,181.8,585.27,181.87,585.25,182Z" transform="translate(-504.79 -166.4)"/><path d="M552.36,179c0-.31,0-0.58,0-0.86a1.4,1.4,0,0,0-.56-1,2.78,2.78,0,0,0-1.5-.59,5,5,0,0,0-1.2,0,3.1,3.1,0,0,0-1.49.68,6.31,6.31,0,0,0-1.86,2.49,13.43,13.43,0,0,0-1,4c0,0.47-.09.94-0.09,1.42a5.19,5.19,0,0,0,.34,1.86,2,2,0,0,0,1.9,1.41,7.2,7.2,0,0,0,1.36,0,2.84,2.84,0,0,0,.84-0.27,3.94,3.94,0,0,0,1.39-1.12,2.44,2.44,0,0,0,.51-1.05,0.22,0.22,0,0,1,.25-0.21l1.18,0h3.75a0.78,0.78,0,0,1,0,.57,5.81,5.81,0,0,1-.73,1.75,7.82,7.82,0,0,1-2.48,2.41,8.94,8.94,0,0,1-3.71,1.45,19.79,19.79,0,0,1-2.08.17,20.1,20.1,0,0,1-2-.05,8.47,8.47,0,0,1-2.61-.56,4,4,0,0,1-1.81-1.41,7.05,7.05,0,0,1-1.35-3.84,16.77,16.77,0,0,1,.45-4.79,11.25,11.25,0,0,1,2.37-4.58,9.84,9.84,0,0,1,1.93-1.85,9,9,0,0,1,3.25-1.34,15.45,15.45,0,0,1,3.81-.32,10.85,10.85,0,0,1,4.37.95l0.65,0.33a3.1,3.1,0,0,1,1.68,2.61,5.39,5.39,0,0,1-.08,1.63c-0.05.24-.06,0.24-0.3,0.24l-4.86,0Z" transform="translate(-504.79 -166.4)"/><path d="M605,189.95l-0.19.2a7,7,0,0,1-1.22,1.13,4.3,4.3,0,0,1-2,.72,7.12,7.12,0,0,1-2.24-.11,2.87,2.87,0,0,1-1.95-1.34,4.7,4.7,0,0,1-.71-1.95,10.06,10.06,0,0,1,2.28-7.93,5.21,5.21,0,0,1,2.74-1.68,8.48,8.48,0,0,1,2-.28,2.83,2.83,0,0,1,1.67.49,5.49,5.49,0,0,1,1.49,1.45l0.15,0.17c0.19-.51.26-1,0.42-1.48,0.21-.06,4.23-0.07,4.55,0a2.41,2.41,0,0,1,0,.3l-2,9.27c-0.51,2.38-1,4.77-1.53,7.15-0.09.43,0,.42-0.51,0.42h-4.17c0.43-2.19.89-4.34,1.32-6.49Zm1.27-5.75a3.62,3.62,0,0,0-.36-1.86,1.25,1.25,0,0,0-.78-0.65,2.06,2.06,0,0,0-2.32.72,6.35,6.35,0,0,0-1.13,2.47c-0.06.25-.11,0.51-0.15,0.76-0.07.47-.16,0.93-0.2,1.4a2.8,2.8,0,0,0,.29,1.48,1.12,1.12,0,0,0,.72.6,2.17,2.17,0,0,0,.9.06,2.52,2.52,0,0,0,2-1.25,6.5,6.5,0,0,0,.61-1.43A6.83,6.83,0,0,0,606.28,184.2Z" transform="translate(-504.79 -166.4)"/><path d="M526.22,179.94a3.47,3.47,0,0,1-6.94,0A3.47,3.47,0,1,1,526.22,179.94Z" transform="translate(-504.79 -166.4)"/></svg>