<?xml version="1.0" encoding="utf-8"?>
<!-- Generator: Adobe Illustrator 19.2.1, SVG Export Plug-In . SVG Version: 6.00 Build 0)  -->
<svg version="1.1" id="Camada_1" xmlns="http://www.w3.org/2000/svg" xmlns:xlink="http://www.w3.org/1999/xlink" x="0px" y="0px"
	 viewBox="0 0 84.7 39.4" style="enable-background:new 0 0 84.7 39.4;" xml:space="preserve">
<style type="text/css">
	.st0{fill:#BC0000;}
</style>
<title>dcc</title>
<g>
	<path d="M65.4,5c0,0.6-0.1,1.1-0.2,1.6c-0.2,0.5-0.4,0.9-0.7,1.2c-0.3,0.3-0.7,0.6-1.1,0.8C63,8.7,62.5,8.8,62,8.8h-2.8V1.2H62
		c0.5,0,1,0.1,1.4,0.3c0.4,0.2,0.8,0.4,1.1,0.8C64.8,2.6,65,3,65.2,3.4C65.3,3.9,65.4,4.4,65.4,5z M64,5c0-0.3,0-0.6-0.1-0.8
		c-0.1-0.3-0.2-0.5-0.3-0.8c-0.1-0.2-0.3-0.4-0.6-0.6c-0.3-0.1-0.6-0.2-1-0.2h-1.4v4.9H62c0.4,0,0.8-0.1,1-0.3
		c0.3-0.2,0.5-0.4,0.6-0.6c0.1-0.2,0.2-0.5,0.3-0.8C63.9,5.5,64,5.2,64,5z"/>
	<path d="M74.6,6.9c-0.3,0.6-0.7,1.2-1.3,1.5c-0.6,0.4-1.2,0.6-2,0.6c-0.5,0-1-0.1-1.4-0.3c-0.4-0.2-0.8-0.5-1.2-0.8
		c-0.3-0.4-0.6-0.8-0.8-1.3c-0.2-0.5-0.3-1-0.3-1.6c0-0.6,0.1-1.1,0.3-1.6c0.2-0.5,0.4-0.9,0.8-1.3c0.3-0.4,0.7-0.6,1.2-0.8
		C70.3,1.1,70.8,1,71.3,1c0.8,0,1.4,0.2,2,0.6c0.6,0.4,1,0.9,1.3,1.5l-1.4,0.4c-0.2-0.3-0.4-0.6-0.7-0.8c-0.3-0.2-0.7-0.3-1.1-0.3
		c-0.3,0-0.6,0.1-0.9,0.2c-0.3,0.1-0.5,0.3-0.7,0.6c-0.2,0.2-0.4,0.5-0.5,0.8c-0.1,0.3-0.2,0.7-0.2,1c0,0.4,0.1,0.7,0.2,1
		c0.1,0.3,0.3,0.6,0.5,0.8c0.2,0.2,0.4,0.4,0.7,0.6c0.3,0.1,0.6,0.2,0.9,0.2c0.4,0,0.8-0.1,1.1-0.3c0.3-0.2,0.6-0.5,0.7-0.8
		L74.6,6.9z"/>
	<path d="M83.8,6.9c-0.3,0.6-0.7,1.2-1.3,1.5c-0.6,0.4-1.2,0.6-2,0.6c-0.5,0-1-0.1-1.4-0.3c-0.4-0.2-0.8-0.5-1.2-0.8
		c-0.3-0.4-0.6-0.8-0.8-1.3c-0.2-0.5-0.3-1-0.3-1.6c0-0.6,0.1-1.1,0.3-1.6C77.4,3,77.6,2.5,78,2.2c0.3-0.4,0.7-0.6,1.2-0.8
		C79.6,1.1,80,1,80.6,1c0.8,0,1.4,0.2,2,0.6c0.6,0.4,1,0.9,1.3,1.5l-1.4,0.4c-0.2-0.3-0.4-0.6-0.7-0.8c-0.3-0.2-0.7-0.3-1.1-0.3
		c-0.3,0-0.6,0.1-0.9,0.2c-0.3,0.1-0.5,0.3-0.7,0.6c-0.2,0.2-0.4,0.5-0.5,0.8c-0.1,0.3-0.2,0.7-0.2,1c0,0.4,0.1,0.7,0.2,1
		c0.1,0.3,0.3,0.6,0.5,0.8c0.2,0.2,0.4,0.4,0.7,0.6c0.3,0.1,0.6,0.2,0.9,0.2c0.4,0,0.8-0.1,1.1-0.3c0.3-0.2,0.6-0.5,0.7-0.8
		L83.8,6.9z"/>
	<rect x="58.6" y="10.9" class="st0" width="26.1" height="6.6"/>
	<g>
		<path d="M24.7,24.8c0,0.4,0,0.7-0.1,0.9c-0.1,0.3-0.2,0.5-0.4,0.7c-0.2,0.2-0.4,0.3-0.6,0.5C23.2,27,22.9,27,22.6,27h-1.7v-4.6
			h1.7c0.3,0,0.6,0.1,0.9,0.2c0.3,0.1,0.5,0.3,0.6,0.5c0.2,0.2,0.3,0.4,0.4,0.7C24.6,24.1,24.7,24.4,24.7,24.8z M23.8,24.8
			c0-0.2,0-0.3,0-0.5c0-0.2-0.1-0.3-0.2-0.5s-0.2-0.3-0.4-0.3c-0.2-0.1-0.4-0.1-0.6-0.1h-0.8v2.9h0.8c0.3,0,0.5-0.1,0.6-0.2
			c0.2-0.1,0.3-0.2,0.4-0.4c0.1-0.1,0.1-0.3,0.2-0.5C23.8,25.1,23.8,24.9,23.8,24.8z"/>
		<path d="M28.5,27h-3.4v-4.6h3.3v0.8H26v1h2.1v0.8H26v1.2h2.5V27z"/>
		<path d="M32.5,24c0,0.2,0,0.4-0.1,0.6S32.2,24.9,32,25c-0.1,0.1-0.3,0.2-0.5,0.3c-0.2,0.1-0.4,0.1-0.6,0.1h-1.1V27H29v-4.6h1.9
			c0.2,0,0.4,0,0.6,0.1c0.2,0.1,0.3,0.2,0.5,0.3c0.1,0.1,0.2,0.3,0.3,0.5S32.5,23.7,32.5,24z M29.9,23.3v1.3h1
			c0.2,0,0.4-0.1,0.5-0.2c0.1-0.1,0.2-0.3,0.2-0.5s-0.1-0.4-0.2-0.5c-0.1-0.1-0.3-0.2-0.5-0.2H29.9z"/>
		<path d="M33.7,26.1L33.4,27h-0.9l1.6-4.6h1.1l1.6,4.6h-0.9l-0.3-0.9H33.7z M34.7,23.5L34,25.3h1.3L34.7,23.5z"/>
		<path d="M40.7,24c0,0.3-0.1,0.6-0.3,0.9c-0.2,0.2-0.4,0.4-0.7,0.5l1,1.7h-1l-0.9-1.6H38V27h-0.9v-4.6h2c0.2,0,0.4,0,0.6,0.1
			c0.2,0.1,0.3,0.2,0.5,0.3c0.1,0.1,0.2,0.3,0.3,0.5S40.7,23.7,40.7,24z M38,23.3v1.3h1.2c0.2,0,0.4-0.1,0.5-0.2
			c0.1-0.1,0.2-0.3,0.2-0.5s-0.1-0.4-0.2-0.5c-0.1-0.1-0.3-0.2-0.5-0.2H38z"/>
		<path d="M43.1,23.3V27h-0.9v-3.7H41v-0.8h3.3v0.8H43.1z"/>
		<path d="M48.1,27h-3.4v-4.6h3.3v0.8h-2.5v1h2.1v0.8h-2.1v1.2h2.5V27z"/>
		<path d="M53.1,27h-0.9v-3.3L51.3,27h-0.9l-0.9-3.3V27h-0.9v-4.6h1.3l1,3.4l1-3.4h1.3V27z"/>
		<path d="M54.6,26.1L54.3,27h-0.9l1.6-4.6h1.1l1.6,4.6h-0.9l-0.3-0.9H54.6z M55.5,23.5l-0.6,1.9h1.3L55.5,23.5z"/>
		<path d="M61.8,27h-1l-1.9-3.2V27H58v-4.6h1l1.9,3.2v-3.2h0.9V27z"/>
		<path d="M65.9,27h-3.4v-4.6h3.3v0.8h-2.5v1h2.1v0.8h-2.1v1.2h2.5V27z"/>
		<path d="M68.1,23.3V27h-0.9v-3.7H66v-0.8h3.3v0.8H68.1z"/>
		<path d="M71.8,22.4c0.3,0,0.6,0.1,0.9,0.2c0.3,0.1,0.5,0.3,0.7,0.5c0.2,0.2,0.4,0.5,0.5,0.8c0.1,0.3,0.2,0.6,0.2,0.9
			c0,0.3-0.1,0.6-0.2,0.9c-0.1,0.3-0.3,0.5-0.5,0.8c-0.2,0.2-0.4,0.4-0.7,0.5c-0.3,0.1-0.6,0.2-0.9,0.2c-0.3,0-0.6-0.1-0.9-0.2
			c-0.3-0.1-0.5-0.3-0.7-0.5c-0.2-0.2-0.4-0.5-0.5-0.8c-0.1-0.3-0.2-0.6-0.2-0.9c0-0.3,0.1-0.6,0.2-0.9c0.1-0.3,0.3-0.5,0.5-0.8
			c0.2-0.2,0.4-0.4,0.7-0.5C71.2,22.4,71.5,22.4,71.8,22.4z M71.8,26.3c0.2,0,0.4,0,0.5-0.1c0.2-0.1,0.3-0.2,0.4-0.3
			c0.1-0.1,0.2-0.3,0.3-0.5c0.1-0.2,0.1-0.4,0.1-0.6c0-0.2,0-0.4-0.1-0.6c-0.1-0.2-0.2-0.4-0.3-0.5c-0.1-0.1-0.3-0.3-0.4-0.3
			c-0.2-0.1-0.3-0.1-0.5-0.1c-0.2,0-0.4,0-0.5,0.1c-0.2,0.1-0.3,0.2-0.4,0.3c-0.1,0.1-0.2,0.3-0.3,0.5c-0.1,0.2-0.1,0.4-0.1,0.6
			c0,0.2,0,0.4,0.1,0.6c0.1,0.2,0.2,0.4,0.3,0.5c0.1,0.1,0.3,0.3,0.4,0.3C71.4,26.3,71.6,26.3,71.8,26.3z"/>
		<path d="M80.3,24.8c0,0.4,0,0.7-0.1,0.9c-0.1,0.3-0.2,0.5-0.4,0.7s-0.4,0.3-0.6,0.5C78.8,27,78.5,27,78.2,27h-1.7v-4.6h1.7
			c0.3,0,0.6,0.1,0.9,0.2c0.3,0.1,0.5,0.3,0.6,0.5c0.2,0.2,0.3,0.4,0.4,0.7C80.2,24.1,80.3,24.4,80.3,24.8z M79.4,24.8
			c0-0.2,0-0.3,0-0.5c0-0.2-0.1-0.3-0.2-0.5c-0.1-0.1-0.2-0.3-0.4-0.3c-0.2-0.1-0.4-0.1-0.6-0.1h-0.8v2.9h0.8c0.3,0,0.5-0.1,0.6-0.2
			c0.2-0.1,0.3-0.2,0.4-0.4c0.1-0.1,0.1-0.3,0.2-0.5C79.4,25.1,79.4,24.9,79.4,24.8z"/>
		<path d="M84.1,27h-3.4v-4.6h3.3v0.8h-2.5v1h2.1v0.8h-2.1v1.2h2.5V27z"/>
	</g>
	<g>
		<path d="M4.4,35.6c-0.2,0.4-0.4,0.7-0.8,1c-0.4,0.2-0.8,0.4-1.3,0.4c-0.3,0-0.6-0.1-0.9-0.2c-0.3-0.1-0.5-0.3-0.7-0.5
			c-0.2-0.2-0.4-0.5-0.5-0.8c-0.1-0.3-0.2-0.6-0.2-1c0-0.3,0.1-0.7,0.2-1c0.1-0.3,0.3-0.6,0.5-0.8c0.2-0.2,0.5-0.4,0.7-0.5
			C1.7,32,2,31.9,2.3,31.9c0.5,0,0.9,0.1,1.3,0.3c0.4,0.2,0.6,0.6,0.8,1l-0.9,0.2C3.4,33.3,3.2,33.1,3,33c-0.2-0.1-0.4-0.2-0.7-0.2
			c-0.2,0-0.4,0-0.6,0.1c-0.2,0.1-0.3,0.2-0.4,0.4c-0.1,0.2-0.2,0.3-0.3,0.5C1,34,0.9,34.2,0.9,34.4c0,0.2,0,0.4,0.1,0.6
			c0.1,0.2,0.2,0.4,0.3,0.5c0.1,0.2,0.3,0.3,0.4,0.4c0.2,0.1,0.4,0.1,0.6,0.1c0.3,0,0.5-0.1,0.7-0.2c0.2-0.1,0.4-0.3,0.5-0.5
			L4.4,35.6z"/>
		<path d="M5.9,36.8H5v-4.8h0.9V36.8z"/>
		<path d="M10.2,36.8H6.7v-4.8h3.5v0.8H7.6v1h2.2v0.8H7.6V36h2.6V36.8z M7.3,31.7l0.8-1h0.8l0.8,1H8.9l-0.4-0.6l-0.4,0.6H7.3z"/>
		<path d="M14.6,36.8h-1.1l-1.9-3.4v3.4h-0.9v-4.8h1.1l1.9,3.4v-3.4h0.9V36.8z"/>
		<path d="M19.6,35.6c-0.2,0.4-0.4,0.7-0.8,1c-0.4,0.2-0.8,0.4-1.3,0.4c-0.3,0-0.6-0.1-0.9-0.2c-0.3-0.1-0.5-0.3-0.7-0.5
			c-0.2-0.2-0.4-0.5-0.5-0.8c-0.1-0.3-0.2-0.6-0.2-1c0-0.3,0.1-0.7,0.2-1c0.1-0.3,0.3-0.6,0.5-0.8c0.2-0.2,0.5-0.4,0.7-0.5
			c0.3-0.1,0.6-0.2,0.9-0.2c0.5,0,0.9,0.1,1.3,0.3c0.4,0.2,0.6,0.6,0.8,1l-0.9,0.2c-0.1-0.2-0.3-0.4-0.5-0.5
			c-0.2-0.1-0.4-0.2-0.7-0.2c-0.2,0-0.4,0-0.6,0.1c-0.2,0.1-0.3,0.2-0.4,0.4c-0.1,0.2-0.2,0.3-0.3,0.5c-0.1,0.2-0.1,0.4-0.1,0.6
			c0,0.2,0,0.4,0.1,0.6c0.1,0.2,0.2,0.4,0.3,0.5c0.1,0.2,0.3,0.3,0.4,0.4c0.2,0.1,0.4,0.1,0.6,0.1c0.3,0,0.5-0.1,0.7-0.2
			c0.2-0.1,0.4-0.3,0.5-0.5L19.6,35.6z"/>
		<path d="M21.1,36.8h-0.9v-4.8h0.9V36.8z"/>
		<path d="M22.7,35.9l-0.3,1h-1l1.7-4.8h1.1l1.7,4.8h-1l-0.3-1H22.7z M23.7,33.1L23,35h1.3L23.7,33.1z"/>
		<path d="M32.3,34.5c0,0.4-0.1,0.7-0.2,1c-0.1,0.3-0.2,0.5-0.4,0.8c-0.2,0.2-0.4,0.4-0.7,0.5c-0.3,0.1-0.6,0.2-0.9,0.2h-1.8v-4.8
			h1.8c0.3,0,0.6,0.1,0.9,0.2c0.3,0.1,0.5,0.3,0.7,0.5c0.2,0.2,0.3,0.5,0.4,0.8C32.3,33.8,32.3,34.1,32.3,34.5z M31.4,34.5
			c0-0.2,0-0.4-0.1-0.5c0-0.2-0.1-0.3-0.2-0.5c-0.1-0.1-0.2-0.3-0.4-0.4c-0.2-0.1-0.4-0.1-0.6-0.1h-0.9V36h0.9
			c0.3,0,0.5-0.1,0.7-0.2c0.2-0.1,0.3-0.2,0.4-0.4c0.1-0.2,0.1-0.3,0.2-0.5C31.4,34.8,31.4,34.6,31.4,34.5z"/>
		<path d="M33.7,35.9l-0.3,1h-1l1.7-4.8h1.1l1.7,4.8h-1l-0.3-1H33.7z M34.7,33.1L34,35h1.3L34.7,33.1z"/>
		<path d="M43.6,35.6c-0.2,0.4-0.4,0.7-0.8,1c-0.4,0.2-0.8,0.4-1.3,0.4c-0.3,0-0.6-0.1-0.9-0.2c-0.3-0.1-0.5-0.3-0.7-0.5
			c-0.2-0.2-0.4-0.5-0.5-0.8c-0.1-0.3-0.2-0.6-0.2-1c0-0.3,0.1-0.7,0.2-1c0.1-0.3,0.3-0.6,0.5-0.8c0.2-0.2,0.5-0.4,0.7-0.5
			c0.3-0.1,0.6-0.2,0.9-0.2c0.5,0,0.9,0.1,1.3,0.3c0.4,0.2,0.6,0.6,0.8,1l-0.9,0.2c-0.1-0.2-0.3-0.4-0.5-0.5
			c-0.2-0.1-0.4-0.2-0.7-0.2c-0.2,0-0.4,0-0.6,0.1c-0.2,0.1-0.3,0.2-0.4,0.4c-0.1,0.2-0.2,0.3-0.3,0.5c-0.1,0.2-0.1,0.4-0.1,0.6
			c0,0.2,0,0.4,0.1,0.6c0.1,0.2,0.2,0.4,0.3,0.5c0.1,0.2,0.3,0.3,0.4,0.4c0.2,0.1,0.4,0.1,0.6,0.1c0.3,0,0.5-0.1,0.7-0.2
			c0.2-0.1,0.4-0.3,0.5-0.5L43.6,35.6z"/>
		<path d="M46.3,32c0.3,0,0.6,0.1,0.9,0.2c0.3,0.1,0.5,0.3,0.7,0.5c0.2,0.2,0.4,0.5,0.5,0.8c0.1,0.3,0.2,0.6,0.2,1
			c0,0.3-0.1,0.7-0.2,1c-0.1,0.3-0.3,0.6-0.5,0.8c-0.2,0.2-0.5,0.4-0.7,0.5c-0.3,0.1-0.6,0.2-0.9,0.2c-0.3,0-0.7-0.1-0.9-0.2
			c-0.3-0.1-0.5-0.3-0.7-0.5c-0.2-0.2-0.4-0.5-0.5-0.8c-0.1-0.3-0.2-0.6-0.2-1c0-0.3,0.1-0.7,0.2-1c0.1-0.3,0.3-0.6,0.5-0.8
			c0.2-0.2,0.5-0.4,0.7-0.5C45.6,32,46,32,46.3,32z M46.3,36.1c0.2,0,0.4,0,0.6-0.1c0.2-0.1,0.3-0.2,0.5-0.4
			c0.1-0.1,0.2-0.3,0.3-0.5c0.1-0.2,0.1-0.4,0.1-0.6c0-0.2,0-0.4-0.1-0.6c-0.1-0.2-0.2-0.4-0.3-0.5c-0.1-0.1-0.3-0.3-0.5-0.4
			c-0.2-0.1-0.4-0.1-0.6-0.1c-0.2,0-0.4,0-0.6,0.1c-0.2,0.1-0.3,0.2-0.5,0.4c-0.1,0.1-0.2,0.3-0.3,0.5c-0.1,0.2-0.1,0.4-0.1,0.6
			c0,0.2,0,0.4,0.1,0.6c0.1,0.2,0.2,0.4,0.3,0.5c0.1,0.1,0.3,0.3,0.5,0.4C45.9,36,46.1,36.1,46.3,36.1z"/>
		<path d="M53.9,36.8H53v-3.5l-1,3.5h-1l-1-3.5v3.5h-0.9v-4.8h1.3l1,3.6l1-3.6h1.4V36.8z"/>
		<path d="M58.2,33.6c0,0.2,0,0.4-0.1,0.6c-0.1,0.2-0.2,0.4-0.3,0.5c-0.1,0.1-0.3,0.2-0.5,0.3c-0.2,0.1-0.4,0.1-0.6,0.1h-1.1v1.7
			h-0.9v-4.8h2c0.2,0,0.5,0,0.7,0.1s0.4,0.2,0.5,0.3c0.1,0.1,0.2,0.3,0.3,0.5C58.2,33.2,58.2,33.4,58.2,33.6z M55.5,32.9v1.4h1.1
			c0.2,0,0.4-0.1,0.5-0.2c0.1-0.1,0.2-0.3,0.2-0.5c0-0.2-0.1-0.4-0.2-0.5c-0.1-0.1-0.3-0.2-0.5-0.2H55.5z"/>
		<path d="M62.3,35c0,0.3,0,0.6-0.1,0.8c-0.1,0.2-0.2,0.5-0.4,0.6c-0.2,0.2-0.3,0.3-0.6,0.4c-0.2,0.1-0.5,0.1-0.8,0.1
			c-0.3,0-0.6,0-0.8-0.1c-0.2-0.1-0.4-0.2-0.6-0.4c-0.2-0.2-0.3-0.4-0.4-0.6c-0.1-0.2-0.1-0.5-0.1-0.8v-2.9h0.9V35
			c0,0.7,0.3,1.1,0.9,1.1c0.6,0,0.9-0.4,0.9-1.1v-2.9h0.9V35z"/>
		<path d="M64.9,32.9v3.9H64v-3.9h-1.3v-0.8h3.5v0.8H64.9z"/>
		<path d="M67.5,35.9l-0.3,1h-1l1.7-4.8H69l1.7,4.8h-1l-0.3-1H67.5z M68.4,33.1l-0.7,2h1.3L68.4,33.1z"/>
		<path d="M74,37.8c0,0.1,0,0.2-0.1,0.3c0,0.1-0.1,0.1-0.2,0.2c-0.1,0.1-0.2,0.1-0.3,0.1c-0.1,0-0.2,0-0.3,0c-0.2,0-0.3,0-0.4-0.1
			c-0.1-0.1-0.2-0.1-0.3-0.2l0.1-0.2c0.1,0.1,0.2,0.1,0.4,0.1c0.1,0,0.2,0,0.3,0c0.1,0,0.1,0,0.2-0.1c0,0,0.1-0.1,0.1-0.2
			c0-0.1,0-0.1-0.1-0.1c0,0-0.1-0.1-0.1-0.1c-0.1,0-0.1,0-0.2,0c-0.1,0-0.1,0-0.2,0l-0.3-0.2l0.2-0.5c-0.3,0-0.6-0.1-0.8-0.3
			c-0.3-0.1-0.5-0.3-0.7-0.5c-0.2-0.2-0.3-0.5-0.4-0.8c-0.1-0.3-0.2-0.6-0.2-0.9c0-0.3,0.1-0.7,0.2-1c0.1-0.3,0.3-0.6,0.5-0.8
			c0.2-0.2,0.5-0.4,0.7-0.5c0.3-0.1,0.6-0.2,0.9-0.2c0.5,0,0.9,0.1,1.3,0.3c0.4,0.2,0.6,0.6,0.8,1l-0.9,0.2
			c-0.1-0.2-0.3-0.4-0.5-0.5c-0.2-0.1-0.4-0.2-0.7-0.2c-0.2,0-0.4,0-0.6,0.1c-0.2,0.1-0.3,0.2-0.4,0.4c-0.1,0.2-0.2,0.3-0.3,0.5
			c-0.1,0.2-0.1,0.4-0.1,0.6c0,0.2,0,0.4,0.1,0.6c0.1,0.2,0.2,0.4,0.3,0.5c0.1,0.2,0.3,0.3,0.4,0.4c0.2,0.1,0.4,0.1,0.6,0.1
			c0.3,0,0.5-0.1,0.7-0.2c0.2-0.1,0.4-0.3,0.5-0.5l0.9,0.2c-0.2,0.4-0.4,0.7-0.7,0.9c-0.3,0.2-0.7,0.4-1.1,0.4l-0.2,0.3
			c0.1,0,0.2-0.1,0.3-0.1c0.1,0,0.2,0,0.3,0.1c0.1,0,0.2,0.1,0.2,0.2C74,37.5,74,37.6,74,37.8z"/>
		<path d="M76.6,35.9l-0.3,1h-1l1.7-4.8h1.1l1.7,4.8h-1l-0.3-1H76.6z M78.8,30.8c0,0.1,0,0.2-0.1,0.3c0,0.1-0.1,0.2-0.1,0.3
			s-0.1,0.1-0.2,0.2c-0.1,0-0.2,0.1-0.3,0.1c-0.1,0-0.2,0-0.3,0c-0.1,0-0.2-0.1-0.3-0.1c-0.1,0-0.2-0.1-0.2-0.1c-0.1,0-0.1,0-0.2,0
			c-0.2,0-0.3,0.1-0.3,0.3h-0.4c0-0.1,0-0.2,0.1-0.3c0-0.1,0.1-0.2,0.1-0.3c0.1-0.1,0.1-0.1,0.2-0.2c0.1,0,0.2-0.1,0.3-0.1
			c0.1,0,0.2,0,0.3,0c0.1,0,0.2,0.1,0.2,0.1c0.1,0,0.2,0.1,0.2,0.1c0.1,0,0.1,0,0.2,0c0.1,0,0.1,0,0.2-0.1c0,0,0.1-0.1,0.1-0.2H78.8
			z M77.6,33.1l-0.7,2h1.3L77.6,33.1z"/>
		<path d="M82.3,32c0.3,0,0.6,0.1,0.9,0.2c0.3,0.1,0.5,0.3,0.7,0.5c0.2,0.2,0.4,0.5,0.5,0.8c0.1,0.3,0.2,0.6,0.2,1
			c0,0.3-0.1,0.7-0.2,1c-0.1,0.3-0.3,0.6-0.5,0.8c-0.2,0.2-0.5,0.4-0.7,0.5c-0.3,0.1-0.6,0.2-0.9,0.2c-0.3,0-0.7-0.1-0.9-0.2
			c-0.3-0.1-0.5-0.3-0.7-0.5c-0.2-0.2-0.4-0.5-0.5-0.8c-0.1-0.3-0.2-0.6-0.2-1c0-0.3,0.1-0.7,0.2-1c0.1-0.3,0.3-0.6,0.5-0.8
			c0.2-0.2,0.5-0.4,0.7-0.5C81.7,32,82,32,82.3,32z M82.3,36.1c0.2,0,0.4,0,0.6-0.1c0.2-0.1,0.3-0.2,0.5-0.4
			c0.1-0.1,0.2-0.3,0.3-0.5c0.1-0.2,0.1-0.4,0.1-0.6c0-0.2,0-0.4-0.1-0.6c-0.1-0.2-0.2-0.4-0.3-0.5c-0.1-0.1-0.3-0.3-0.5-0.4
			c-0.2-0.1-0.4-0.1-0.6-0.1c-0.2,0-0.4,0-0.6,0.1c-0.2,0.1-0.3,0.2-0.5,0.4c-0.1,0.1-0.2,0.3-0.3,0.5c-0.1,0.2-0.1,0.4-0.1,0.6
			c0,0.2,0,0.4,0.1,0.6c0.1,0.2,0.2,0.4,0.3,0.5c0.1,0.1,0.3,0.3,0.5,0.4C82,36,82.1,36.1,82.3,36.1z"/>
	</g>
</g>
</svg>
