<svg id="Camada_1" data-name="Camada 1" xmlns="http://www.w3.org/2000/svg" viewBox="0 0 62.22 50.69"><defs><style>.cls-1{fill:#f3f6fa;}</style></defs><title>fapemi</title><path d="M688.8,205.44a5.11,5.11,0,0,1-1.93.14v-9.87a0.14,0.14,0,0,0,.12,0,1.25,1.25,0,0,1,.21,1c0,2.53,0,5.06,0,7.59,0,0.92,0,.92.92,1A0.93,0.93,0,0,1,688.8,205.44Z" transform="translate(-686.87 -154.92)"/><path d="M749,198.71h0.14v6.37l-0.15,0a1.09,1.09,0,0,1-.19-0.8q0-2.36,0-4.73A1.08,1.08,0,0,1,749,198.71Z" transform="translate(-686.87 -154.92)"/><path class="cls-1" d="M714.8,154.92V155a0.52,0.52,0,0,1-.78,0s0-.08,0-0.12h0.78Z" transform="translate(-686.87 -154.92)"/><path d="M729.15,198.56l1.78-3.22a4.29,4.29,0,0,1,.72-1,1.21,1.21,0,0,1,2.09.43,2.38,2.38,0,0,1,.14.89c0,3.1,0,6.19,0,9.29,0,0.47-.1.7-0.6,0.61a1.51,1.51,0,0,0-.45,0c-0.46.07-.58-0.13-0.58-0.58,0-2.47,0-4.93,0-7.4a1.62,1.62,0,0,0-.11-0.7l-3,4.78-3-4.79a0.78,0.78,0,0,0-.11.62c0,2.49,0,5,0,7.47,0,0.49-.13.63-0.62,0.61-1,0-1,0-1-1q0-2,0-4.09c0-1.62,0-3.25,0-4.87a2,2,0,0,1,.22-1,1.17,1.17,0,0,1,2-.32,4.09,4.09,0,0,1,.77,1Z" transform="translate(-686.87 -154.92)"/><path d="M749,198.71V205a10.55,10.55,0,0,1-3.12.53,4.43,4.43,0,0,1-4.42-2.89,7.42,7.42,0,0,1-.06-5.69c0.94-2.43,3-3.47,5.73-2.93,1.45,0.29,1.75.74,1.48,2.2-0.07.39-.27,0.22-0.46,0.13a6,6,0,0,0-1.87-.48,2.76,2.76,0,0,0-3.11,2,5.78,5.78,0,0,0,0,3.7,3,3,0,0,0,3.68,2,0.4,0.4,0,0,0,.38-0.48c0-.69,0-1.38,0-2.08a0.35,0.35,0,0,0-.45-0.43c-0.13,0-.26,0-0.39,0-0.95,0-.95,0-0.95-1s0-.9.88-0.9Z" transform="translate(-686.87 -154.92)"/><path d="M715.07,199.8c0-1.15,0-2.29,0-3.44A2.11,2.11,0,0,1,717.4,194c1.34,0,2.68,0,4,0a0.41,0.41,0,0,1,.52.5c0,1.53,0,1.53-1.5,1.53-0.93,0-1.86,0-2.79,0a0.57,0.57,0,0,0-.67.65c-0.08,1.84-.09,1.84,1.77,1.84h0.52c1.39,0,1.37,0,1.38,1.38,0,0.43-.11.57-0.54,0.55-0.89,0-1.78,0-2.66,0a0.38,0.38,0,0,0-.47.48c0,0.65,0,1.3,0,1.95a0.56,0.56,0,0,0,.67.66c1.26,0,2.51,0,3.77,0,0.37,0,.53.07,0.53,0.49,0,1.54,0,1.54-1.49,1.54h-3.12a2.09,2.09,0,0,1-2.27-2.26C715.05,202.14,715.07,201,715.07,199.8Z" transform="translate(-686.87 -154.92)"/><path d="M706.83,178.58a28.84,28.84,0,0,1,1,3.65,4.31,4.31,0,0,0,1.9,2.84,18.23,18.23,0,0,0,9,3.47,18.56,18.56,0,0,0,12.13-2.85c2.57-1.58,3.43-3.93,3.27-6.79a12.93,12.93,0,0,0-.61-3.31,0.85,0.85,0,0,1,.23-1c0.21,0,.19.21,0.23,0.33A15,15,0,0,1,735.2,182a5.62,5.62,0,0,1-2.49,4.21,16.4,16.4,0,0,1-6.39,2.4,28.92,28.92,0,0,1-13.86-.71,12.8,12.8,0,0,1-3.83-1.87,5.1,5.1,0,0,1-2.16-4,22.51,22.51,0,0,1,.13-3A0.69,0.69,0,0,1,706.83,178.58Z" transform="translate(-686.87 -154.92)"/><path d="M714,155h0.78a22,22,0,0,1,9.84,3.56,29,29,0,0,1,7.69,6.51,9.09,9.09,0,0,1,2.24,5.08,5.31,5.31,0,0,1-.68,3.06,17.45,17.45,0,0,1-6,6,0.62,0.62,0,0,1-.25,0,18.49,18.49,0,0,1,1.44-1.88,19,19,0,0,0,3-4,6.4,6.4,0,0,0,.38-5.74,12,12,0,0,0-2.49-3.92,21.91,21.91,0,0,0-13.29-7.22,11.53,11.53,0,0,0-2.91,0,4.08,4.08,0,0,0-2.62,1.29,8.76,8.76,0,0,0-1.38,1.79,1,1,0,0,1-1.3.57A6.57,6.57,0,0,1,714,155Z" transform="translate(-686.87 -154.92)"/><path d="M688.8,205.44a11.6,11.6,0,0,0-1.16,0c-0.53.06-.65-0.16-0.64-0.66,0-3,0-6.07,0-9.11a2,2,0,0,1,2.07-1.66c1.41,0,2.81,0,4.22,0,0.41,0,.5.13,0.51,0.51,0,1.52,0,1.52-1.51,1.52-0.91,0-1.82,0-2.72,0a0.6,0.6,0,0,0-.74.72,12.4,12.4,0,0,1,0,1.36c0,0.36.13,0.43,0.45,0.43,0.91,0,1.82,0,2.72,0,0.34,0,.49.05,0.5,0.45,0,1.54,0,1.53-1.48,1.53-0.56,0-1.13,0-1.69,0-0.4,0-.51.11-0.51,0.51C688.82,202.5,688.8,204,688.8,205.44Z" transform="translate(-686.87 -154.92)"/><path d="M720.89,184.63a22.82,22.82,0,0,0,5-5.88,7.12,7.12,0,0,0-.41-8.36,19.8,19.8,0,0,0-6.05-5.41l-0.76-.48a2.21,2.21,0,0,0-.82-0.45h0a0.36,0.36,0,0,0-.24-0.16,0.2,0.2,0,0,1-.11-0.26,0.21,0.21,0,0,1,.28-0.07,3.06,3.06,0,0,1,.62.32,0.59,0.59,0,0,0,.39.16,2.48,2.48,0,0,0,.52.36,21.75,21.75,0,0,1,8.2,7.16,6.2,6.2,0,0,1-.07,7.3,21,21,0,0,1-6.59,6.3,1.35,1.35,0,0,0-.19.17l-0.12,0c-0.14,0-.3.25-0.43,0s0.16-.25.22-0.4h0A1.31,1.31,0,0,0,720.89,184.63Z" transform="translate(-686.87 -154.92)"/><path d="M706.86,172.84a20.34,20.34,0,0,0,2.22,7.13,5.1,5.1,0,0,0,3.76,2.78,19.14,19.14,0,0,0,10.62-1.47,0.83,0.83,0,0,1-.55.78c-3.29,1.41-6.65,2.47-10.3,2.09a5,5,0,0,1-4-2.58,17.29,17.29,0,0,1-1.95-6.34,6.1,6.1,0,0,1-.13-1.48,3.06,3.06,0,0,0,0-1,0.22,0.22,0,0,1,.2-0.22A0.34,0.34,0,0,1,706.86,172.84Z" transform="translate(-686.87 -154.92)"/><path d="M731.51,170.78a22.43,22.43,0,0,0-5.1-6.27,15.48,15.48,0,0,0-3.81-2.42,4.49,4.49,0,0,0-3.7,0,16.45,16.45,0,0,0-4.89,3.34l-1,1c-0.19.11-.28,0.33-0.46,0.44s-0.33,0-.26-0.24a18.74,18.74,0,0,1,5.77-5.41,5.12,5.12,0,0,1,5.42,0,19.8,19.8,0,0,1,6.09,5.74,13.19,13.19,0,0,1,1.71,2.72c0.21,0.28.3,0.64,0.52,0.91l0.13,0.24a2.1,2.1,0,0,0,.35.54l0,0.12c-0.07.23-.14,0.47-0.37,0.1A2,2,0,0,0,731.51,170.78Z" transform="translate(-686.87 -154.92)"/><path d="M736.78,199.73c0-1.73,0-3.46,0-5.19a0.42,0.42,0,0,1,.51-0.52c1.42,0,1.42,0,1.42,1.4,0,3.18,0,6.36,0,9.54,0,0.47-.1.63-0.6,0.62-1.33,0-1.33,0-1.33-1.31v-4.54Z" transform="translate(-686.87 -154.92)"/><path d="M701.14,178.95a20.86,20.86,0,0,0,1.82,5.51c1.8,3.44,2.94,4.22,7.29,4a6.69,6.69,0,0,1,3.34.34,8.1,8.1,0,0,1-1.8.56,12.83,12.83,0,0,1-4.95.38,4.85,4.85,0,0,1-3.48-2.25,17.17,17.17,0,0,1-2.33-6.2,8.65,8.65,0,0,1-.26-1.86,1,1,0,0,0,0-.48C700.89,178.79,701,178.71,701.14,178.95Z" transform="translate(-686.87 -154.92)"/><path d="M700.9,170.38a17.17,17.17,0,0,1,2.68-7.55,4.87,4.87,0,0,1,4-2.14,18.29,18.29,0,0,1,7.75,1.62,0.75,0.75,0,0,1-1,.38,15.82,15.82,0,0,0-7.17-.64,4.16,4.16,0,0,0-2.67,1.58,17,17,0,0,0-3.05,6.59c0,0.19-.1.37-0.15,0.56a0.92,0.92,0,0,0-.12.52v0.13c-0.28.38-.28,0-0.38-0.13l0-.26A1.07,1.07,0,0,0,700.9,170.38Z" transform="translate(-686.87 -154.92)"/><path d="M700.77,171.29c0.12,0.06.18,0.28,0.38,0.13a24,24,0,0,0-.25,5.22c0.06,0.77.16,1.54,0.24,2.31-0.49-.08-0.06.48-0.36,0.52a28.19,28.19,0,0,1-.19-6.71A4.58,4.58,0,0,1,700.77,171.29Z" transform="translate(-686.87 -154.92)"/><path d="M712.31,166.56c0,0.17.06,0.32,0.26,0.13a0.84,0.84,0,0,1,.46-0.32,23.64,23.64,0,0,0-4.21,7c-0.29,0-.29-0.19-0.26-0.4A26.59,26.59,0,0,1,712.31,166.56Z" transform="translate(-686.87 -154.92)"/><path d="M706.86,172.84c-0.09,0-.21-0.33-0.25,0a1.28,1.28,0,0,1-.12.87,27.62,27.62,0,0,1,.39-8.18,0.48,0.48,0,0,1,.37.13A23.83,23.83,0,0,0,706.86,172.84Z" transform="translate(-686.87 -154.92)"/><path d="M720.37,185l-0.17.37,0.49-.06a24.76,24.76,0,0,1-3.72,2.18,1.55,1.55,0,0,1-1.13-.15A21.48,21.48,0,0,0,720.37,185Z" transform="translate(-686.87 -154.92)"/><path d="M707.25,165.7c-0.19.15-.25-0.07-0.37-0.13v-0.13a0.89,0.89,0,0,0,.11-0.52,11.68,11.68,0,0,1,.41-2c0.09-.42.42-0.33,0.77-0.35C707.87,163.69,707.47,164.67,707.25,165.7Z" transform="translate(-686.87 -154.92)"/><path d="M708.56,173l0.26,0.4L708,176.13C707.34,174.87,708.16,174,708.56,173Z" transform="translate(-686.87 -154.92)"/><path d="M718.44,163.88a3,3,0,0,0-.81-0.22,2.84,2.84,0,0,0,.27.39l-0.71-.3C717.73,163.29,717.73,163.29,718.44,163.88Z" transform="translate(-686.87 -154.92)"/><path d="M731.51,170.78a0.77,0.77,0,0,1,.48.62c0.14,0.31.23,0.08,0.35,0,0.15,0.26-.07.41-0.21,0.66Z" transform="translate(-686.87 -154.92)"/><path d="M731.82,170.51a1.38,1.38,0,0,1-.52-0.91A1.49,1.49,0,0,1,731.82,170.51Z" transform="translate(-686.87 -154.92)"/><path d="M717.89,164a0.83,0.83,0,0,1,.82.45Z" transform="translate(-686.87 -154.92)"/><path d="M700.9,170.38c0.27,0.27,0,.45-0.11.65A1.06,1.06,0,0,1,700.9,170.38Z" transform="translate(-686.87 -154.92)"/><path d="M732.3,171.29a0.52,0.52,0,0,1-.35-0.54A0.86,0.86,0,0,1,732.3,171.29Z" transform="translate(-686.87 -154.92)"/><path d="M720.89,184.63a0.49,0.49,0,0,1-.53.41A1.35,1.35,0,0,1,720.89,184.63Z" transform="translate(-686.87 -154.92)"/><path d="M719.35,164.4a0.51,0.51,0,0,1-.52-0.36A0.8,0.8,0,0,1,719.35,164.4Z" transform="translate(-686.87 -154.92)"/><path d="M701.16,171.29c-0.22-.23,0-0.36.12-0.52A0.79,0.79,0,0,1,701.16,171.29Z" transform="translate(-686.87 -154.92)"/><path d="M707,164.92c0.23,0.23,0,.36-0.11.52A0.79,0.79,0,0,1,707,164.92Z" transform="translate(-686.87 -154.92)"/><path d="M703.44,204.86q-1.6-4.9-3.19-9.79a1.45,1.45,0,0,0-1.31-1.17,1.47,1.47,0,0,0-1.39,1.15c-0.38,1.17-.75,2.34-1.13,3.51-0.69,2.16-1.39,4.31-2.08,6.48,0,0.15-.27.44,0,0.48a5.18,5.18,0,0,0,1.61,0,0.94,0.94,0,0,0,.37-0.77A4.46,4.46,0,0,1,697,203c0.43-.37,1.25-0.1,1.89-0.1a3.31,3.31,0,0,1,1.83.09,2.89,2.89,0,0,1,.63,1.72c0.16,0.73.5,1.06,1.14,0.87h0.43C703.67,205.57,703.67,205.57,703.44,204.86Zm-3.64-3.95c-0.73,0-1.46,0-2.27,0l1.33-4.29c0.44,1.41.82,2.66,1.22,3.91C700.16,200.81,700.12,200.93,699.8,200.92Z" transform="translate(-686.87 -154.92)"/><path d="M711.59,194.65a2.43,2.43,0,0,0-1.24-.52A14,14,0,0,0,708,194a2.1,2.1,0,0,0-2.32,2.32c0,1.41,0,2.81,0,4.22q0,1.82,0,3.63c0,1.39,0,1.37,1.39,1.37,0.46,0,.53-0.18.52-0.57,0-1,0-2,0-3,0-.54.17-0.66,0.66-0.63a7.4,7.4,0,0,0,1.74-.09,3,3,0,0,0,2.69-2.37A4.05,4.05,0,0,0,711.59,194.65Zm-0.75,3.51a1.41,1.41,0,0,1-1.09,1.16,7.31,7.31,0,0,1-1.87.11c-0.29,0-.29-0.18-0.29-0.39,0-.43,0-0.86,0-1.29a1.58,1.58,0,0,1,0-.26c0.08-.49-0.24-1.08.21-1.46a4,4,0,0,1,2.62.32A1.9,1.9,0,0,1,710.84,198.17Z" transform="translate(-686.87 -154.92)"/></svg>