<?xml version="1.0" encoding="utf-8"?>
<!-- Generator: Adobe Illustrator 19.2.1, SVG Export Plug-In . SVG Version: 6.00 Build 0)  -->
<svg version="1.1" id="Camada_1" xmlns="http://www.w3.org/2000/svg" xmlns:xlink="http://www.w3.org/1999/xlink" x="0px" y="0px"
	 viewBox="0 0 63.3 63.3" style="enable-background:new 0 0 63.3 63.3;" xml:space="preserve">
<style type="text/css">
	.st0{fill:#FFFFFF;}
</style>
<title>logo</title>
<path class="st0" d="M59.8,17.1c-2.2-4.3-5.4-8.1-9.3-11c-0.6-0.4-1.4-0.3-1.8,0.3C48.3,7,48.4,7.8,49,8.2c3.6,2.7,6.5,6.1,8.6,10.1
	c2.1,4.1,3.2,8.7,3.2,13.3c0,16-13,29-29.1,29.1c-16,0-29-13-29.1-29.1c0-16,13-29,29.1-29.1c0.7,0,1.3-0.6,1.3-1.3S32.3,0,31.6,0
	C14.2,0,0,14.1,0,31.6s14.2,31.6,31.6,31.6c17.5,0,31.6-14.2,31.6-31.6C63.3,26.6,62.1,21.6,59.8,17.1z"/>
<circle class="st0" cx="46.4" cy="5.2" r="1.1"/>
<ellipse transform="matrix(0.6392 -0.769 0.769 0.6392 13.2771 34.4061)" class="st0" cx="43.3" cy="3.1" rx="1.1" ry="1.1"/>
<path class="st0" d="M45.2,24.8c-1.9,0-3.6,0.8-4.8,2.2l-10-6c0.3-0.8,0.5-1.6,0.5-2.4c0-3.5-2.8-6.3-6.3-6.3s-6.3,2.8-6.3,6.3
	c0,3,2.2,5.6,5.1,6.2v14.3c-3,0.6-5.1,3.2-5.1,6.2c0,3.5,2.8,6.3,6.3,6.3s6.3-2.8,6.3-6.3c0-3-2.2-5.6-5.1-6.2V24.9
	c1.3-0.2,2.5-0.9,3.4-1.8l10.1,6.1c-0.2,0.6-0.3,1.3-0.3,2c0,1,0.2,1.9,0.6,2.8l-3,2c-0.5,0.4-0.7,1.1-0.4,1.6
	c0.4,0.5,1.1,0.7,1.6,0.3l3.2-2c1.2,1.1,2.7,1.6,4.2,1.6c3.5,0,6.3-2.8,6.3-6.3C51.5,27.7,48.7,24.9,45.2,24.8L45.2,24.8z
	 M28.6,45.4c0,2.3-1.8,4.1-4.1,4.1l0,0c-2.3,0-4.1-1.8-4.1-4.1l0,0c0-2.3,1.8-4.1,4.1-4.1l0,0C26.7,41.3,28.6,43.2,28.6,45.4
	L28.6,45.4L28.6,45.4z M24.4,22.8c-2.3,0-4.1-1.8-4.1-4.1l0,0c0-2.3,1.8-4.1,4.1-4.1l0,0c2.3,0,4.1,1.8,4.1,4.1l0,0
	C28.6,20.9,26.7,22.8,24.4,22.8L24.4,22.8L24.4,22.8z M45.2,35.3c-2.3,0-4.1-1.9-4.1-4.1l0,0c0-2.3,1.8-4.1,4.1-4.1l0,0
	c2.3,0,4.1,1.8,4.1,4.1l0,0C49.3,33.4,47.4,35.3,45.2,35.3L45.2,35.3z"/>
<circle class="st0" cx="31.5" cy="40.6" r="1.1"/>
<circle class="st0" cx="34.3" cy="38.8" r="1.1"/>
</svg>
