<svg id="Camada_1" data-name="Camada 1" xmlns="http://www.w3.org/2000/svg" viewBox="0 0 81.6 40.39"><title>logo_lab</title><path d="M103.41,182.37c2.15-2.78,3.59-5.6,5.87-7.77,1.94-1.85,4.12-3.06,6.89-2.7a4.77,4.77,0,0,1,4.18,4.93c-0.21,2.39-1.38,4.12-4,4.43a3.61,3.61,0,0,1-3.88-2.14c-1.07-2.2-2-1.67-3.09-.05-1.29,2-2.58,4-3.91,5.92a2.51,2.51,0,0,0-.38,2.46c1.18,3.33,2.21,6.72,3.48,10s2.78,3.5,5.11.92a26.86,26.86,0,0,0,2.4-3.36c0.64-1,1.25-.55,2-0.15a1,1,0,0,1,.39,1.68c-2.32,3.87-5,7.32-9.62,8.66-3.48,1-6,0-7.5-3.34-0.87-1.86-1.56-3.79-2.38-5.83-1.82,2.3-3.46,4.62-5.37,6.7-2.3,2.51-5.19,3.54-8.56,2.3A4.66,4.66,0,0,1,81.9,200a4.05,4.05,0,0,1,3.27-4c2.42-.6,4,0.52,4.88,2.71s2.06,1.6,3.08.19c1.38-1.91,2.59-3.95,3.93-5.89a2.27,2.27,0,0,0,.28-2.22c-1.27-3.6-2.54-7.21-3.82-10.81-0.33-.92-0.63-2-1.77-2.14s-1.7.84-2.25,1.65-0.88,1.54-1.35,2.29c-0.31.5-.27,1.55-1.34,1-0.79-.42-1.64-0.86-1.16-2,1.54-3.74,3.53-7.1,7.63-8.51,3.4-1.17,6.25.25,7.81,3.89C101.94,178,102.57,180,103.41,182.37Z" transform="translate(-38.78 -168.98)"/><path d="M77.79,199.93V208H40.16V170.36H77.79v8.8l1.38,0V169H38.78v40.39H79.17v-9.44H77.79Z" transform="translate(-38.78 -168.98)"/><path d="M55.71,179.2l0.94-2.34H57.5l0.35,9.75H56.95a17.45,17.45,0,0,0-2.25-6.06,4.83,4.83,0,0,0-4-2.44,4.69,4.69,0,0,0-4.11,2.72Q45,183.55,45,190q0,5.46,1.82,8.33a4.87,4.87,0,0,0,4.34,2.43,5.22,5.22,0,0,0,4.09-1.89,10.69,10.69,0,0,0,2.16-5.71h1a11.59,11.59,0,0,1-2.45,6.66,6.51,6.51,0,0,1-5.12,2.33,7.64,7.64,0,0,1-4.6-1.52,10.45,10.45,0,0,1-3.35-4.38A15.45,15.45,0,0,1,41.58,190a17.87,17.87,0,0,1,1.29-6.8,11.41,11.41,0,0,1,3.31-4.78,6.88,6.88,0,0,1,4.35-1.6,6.16,6.16,0,0,1,2.52.54A10.3,10.3,0,0,1,55.71,179.2Z" transform="translate(-38.78 -168.98)"/><path d="M72.53,179.15L73.75,177h1l0.08,8.84H73.93a13,13,0,0,0-2.49-5.93,4.94,4.94,0,0,0-3.79-1.87,3.72,3.72,0,0,0-2.93,1.3,4.63,4.63,0,0,0-1.14,3.17,4.56,4.56,0,0,0,.43,2A3.52,3.52,0,0,0,65.31,186a12.65,12.65,0,0,0,3.25,1.17,16.82,16.82,0,0,1,4.7,1.78,5.7,5.7,0,0,1,2,2.27,7.27,7.27,0,0,1,.66,3.2,8.12,8.12,0,0,1-1.82,5.43A5.88,5.88,0,0,1,69.4,202,7.18,7.18,0,0,1,64,199.59l-1.53,2.26h-1v-9.39h1A11.6,11.6,0,0,0,65,198.59a5.85,5.85,0,0,0,4.46,2.25,4.17,4.17,0,0,0,3.27-1.43A5.08,5.08,0,0,0,74,195.92a4.22,4.22,0,0,0-.47-2,3.84,3.84,0,0,0-1.5-1.48A20.41,20.41,0,0,0,68,191a11.07,11.07,0,0,1-4.53-2.13,6.36,6.36,0,0,1-1.69-4.74,8,8,0,0,1,1.69-5.24,5.35,5.35,0,0,1,4.32-2,5.52,5.52,0,0,1,2.4.54A8.42,8.42,0,0,1,72.53,179.15Z" transform="translate(-38.78 -168.98)"/><path d="M77.81,195.74v-6.08h-5.9v-1h5.9v-6.05h0.95v6.05h5.92v1H78.76v6.08H77.81Z" transform="translate(-38.78 -168.98)"/></svg>