<?xml version="1.0" encoding="utf-8"?>
<!-- Generator: Adobe Illustrator 19.2.1, SVG Export Plug-In . SVG Version: 6.00 Build 0)  -->
<svg version="1.1" id="Camada_1" xmlns="http://www.w3.org/2000/svg" xmlns:xlink="http://www.w3.org/1999/xlink" x="0px" y="0px"
	 viewBox="0 0 186.9 33.7" style="enable-background:new 0 0 186.9 33.7;" xml:space="preserve">
<style type="text/css">
	.st0{fill:#9BEFE0;}
	.st1{fill:#0B0B0B;}
</style>
<title>logo_dark</title>
<g>
	<g>
		<g>
			<path class="st0" d="M31.8,9.1c-1.2-2.3-2.9-4.3-5-5.8c-0.3-0.2-0.7-0.2-1,0.1c-0.2,0.3-0.2,0.7,0.1,1c1.9,1.4,3.5,3.3,4.6,5.4
				c1.1,2.2,1.7,4.6,1.7,7.1c0,8.5-6.9,15.5-15.5,15.5c-8.5,0-15.5-6.9-15.5-15.5c0-8.5,6.9-15.5,15.5-15.5c0.4,0,0.7-0.3,0.7-0.7
				c0-0.4-0.3-0.7-0.7-0.7C7.6,0,0,7.6,0,16.8s7.6,16.8,16.8,16.8c9.3,0,16.8-7.6,16.8-16.8C33.7,14.2,33,11.5,31.8,9.1z"/>
			<circle class="st0" cx="24.7" cy="2.7" r="0.6"/>
			<ellipse transform="matrix(0.6378 -0.7702 0.7702 0.6378 6.8776 18.2059)" class="st0" cx="22.8" cy="1.8" rx="0.6" ry="0.6"/>
		</g>
		<g>
			<path class="st0" d="M24,13.2c-1,0-1.9,0.5-2.6,1.2l-5.4-3.2c0.2-0.4,0.3-0.8,0.3-1.3c0-1.9-1.5-3.4-3.4-3.4
				c-1.9,0-3.4,1.5-3.4,3.4c0,1.6,1.2,3,2.7,3.3v7.6c-1.6,0.3-2.7,1.7-2.7,3.3c0,1.9,1.5,3.4,3.4,3.4c1.9,0,3.4-1.5,3.4-3.4
				c0-1.6-1.2-3-2.7-3.3v-7.6c0.7-0.1,1.3-0.5,1.8-1l5.4,3.2c-0.1,0.3-0.2,0.7-0.2,1.1c0,0.5,0.1,1,0.3,1.5l-1.6,1
				c-0.3,0.2-0.4,0.6-0.2,0.9c0.2,0.3,0.6,0.4,0.9,0.2l1.7-1.1c0.6,0.5,1.4,0.9,2.3,0.9c1.9,0,3.4-1.5,3.4-3.4
				C27.4,14.7,25.9,13.2,24,13.2z M15.2,24.2c0,1.2-1,2.2-2.2,2.2s-2.2-1-2.2-2.2s1-2.2,2.2-2.2S15.2,23,15.2,24.2z M13,12.1
				c-1.2,0-2.2-1-2.2-2.2s1-2.2,2.2-2.2s2.2,1,2.2,2.2S14.2,12.1,13,12.1z M24,18.8c-1.2,0-2.2-1-2.2-2.2s1-2.2,2.2-2.2
				c1.2,0,2.2,1,2.2,2.2S25.3,18.8,24,18.8z"/>
			<circle class="st0" cx="16.8" cy="21.6" r="0.6"/>
			<circle class="st0" cx="18.3" cy="20.6" r="0.6"/>
		</g>
	</g>
	<g>
		<path class="st1" d="M56.6,6.7c-3.8-0.5-6.7,0.4-8.8,2.6c-1.6,1.8-2.5,4.3-2.5,7.5c0,3.3,0.8,5.8,2.3,7.6s3.8,2.7,6.6,2.7
			c1.6,0,3.1-0.2,4.5-0.5c0.4-0.1,0.7,0.2,0.7,0.6v0c0,0.4-0.3,0.7-0.6,0.8c-1.4,0.4-3.1,0.6-5,0.6c-3.2,0-5.7-1-7.6-3.1
			c-1.8-2.1-2.8-5-2.8-8.7c0-2.3,0.4-4.4,1.3-6.1c0.9-1.8,2.1-3.1,3.8-4.1s3.6-1.4,5.7-1.4c2,0,3.8,0.3,5.4,1
			c0.3,0.1,0.4,0.5,0.3,0.8l-0.1,0.3c-0.2,0.3-0.6,0.5-0.9,0.3C58.4,7.2,57.6,6.8,56.6,6.7z"/>
		<path class="st1" d="M83.9,16.8c0,3.6-0.9,6.5-2.7,8.6s-4.3,3.2-7.5,3.2c-3.2,0-5.7-1.1-7.5-3.2s-2.7-5-2.7-8.6
			c0-3.6,0.9-6.5,2.7-8.6s4.3-3.1,7.5-3.1c3.2,0,5.7,1,7.5,3.1C83,10.3,83.9,13.2,83.9,16.8z M65.3,16.8c0,3.3,0.7,5.8,2.2,7.6
			c1.5,1.8,3.5,2.7,6.3,2.7c2.7,0,4.8-0.9,6.3-2.7s2.2-4.3,2.2-7.6c0-3.3-0.7-5.8-2.2-7.6s-3.5-2.6-6.3-2.6c-2.7,0-4.8,0.9-6.3,2.7
			C66,11.1,65.3,13.6,65.3,16.8z"/>
		<path class="st1" d="M99.7,28.6c-0.3,0-0.6-0.2-0.7-0.5L90.7,7.5h-0.1c0.1,1.3,0.1,2.6,0.1,4v16.3c0,0.4-0.3,0.8-0.8,0.8h0
			c-0.4,0-0.8-0.3-0.8-0.8V6.5c0-0.4,0.3-0.8,0.8-0.8h1.2c0.3,0,0.6,0.2,0.7,0.5l7.9,19.6h0.1l7.9-19.6c0.1-0.3,0.4-0.5,0.7-0.5h1.1
			c0.4,0,0.8,0.3,0.8,0.8v21.3c0,0.4-0.3,0.8-0.8,0.8h-0.1c-0.4,0-0.8-0.3-0.8-0.8V11.3c0-1.2,0.1-2.5,0.2-3.7h-0.1l-8.3,20.6
			C100.3,28.4,100,28.6,99.7,28.6L99.7,28.6z"/>
		<path class="st1" d="M132.7,5.5c0.4,0,0.8,0.4,0.8,0.8v14c0,2.6-0.8,4.7-2.3,6.1c-1.5,1.5-3.6,2.2-6.4,2.2c-2.6,0-4.7-0.7-6.2-2.2
			s-2.2-3.5-2.2-6.2V6.3c0-0.4,0.4-0.8,0.8-0.8h0c0.4,0,0.8,0.4,0.8,0.8v14c0,2.2,0.6,3.9,1.8,5.1s2.9,1.8,5.2,1.8
			c2.2,0,3.9-0.6,5.1-1.8c1.2-1.2,1.8-2.9,1.8-5V6.3C131.9,5.8,132.3,5.5,132.7,5.5L132.7,5.5z"/>
		<path class="st1" d="M157.1,27.8V6.6c0-0.4,0.4-0.8,0.8-0.8l0,0c0.4,0,0.8,0.4,0.8,0.8v21.2c0,0.4-0.4,0.8-0.8,0.8l0,0
			C157.5,28.6,157.1,28.2,157.1,27.8z"/>
		<path class="st0" d="M184.3,27.6c0-1,0.4-1.5,1.2-1.5c0.9,0,1.3,0.5,1.3,1.5s-0.4,1-1.3,1C184.8,28.6,184.3,28.6,184.3,27.6z"/>
		<path class="st1" d="M177,6.7c-3.8-0.5-6.7,0.4-8.8,2.6c-1.6,1.8-2.5,4.3-2.5,7.5c0,3.3,0.8,5.8,2.3,7.6c1.5,1.8,3.8,2.7,6.6,2.7
			c1.6,0,3.1-0.2,4.5-0.5c0.4-0.1,0.7,0.2,0.7,0.6v0c0,0.4-0.3,0.7-0.6,0.8c-1.4,0.4-3.1,0.6-5,0.6c-3.2,0-5.7-1-7.6-3.1
			c-1.8-2.1-2.8-5-2.8-8.7c0-2.3,0.4-4.4,1.3-6.1c0.9-1.8,2.1-3.1,3.8-4.1s3.6-1.4,5.7-1.4c2,0,3.8,0.3,5.4,1
			c0.3,0.1,0.4,0.5,0.3,0.8l-0.1,0.3c-0.2,0.3-0.6,0.5-0.9,0.3C178.8,7.2,177.9,6.8,177,6.7z"/>
		<g>
			<path class="st1" d="M152.4,22.4c0,1.9-0.7,3.4-2.1,4.5c-1.4,1.1-3.3,1.7-5.6,1.7c-2.7,0-4.8-0.3-6.3-0.9c-0.1,0-0.1-0.1-0.1-0.2
				l0-1.1c0-0.2,0.2-0.3,0.3-0.2c1.6,0.6,3.6,0.9,6,0.9c1.7,0,3-0.3,4.1-1c1.7-1.1,2.5-3.3,1.8-5.2c-0.1-0.2-0.2-0.4-0.3-0.6
				c-0.4-0.6-1-1.1-1.8-1.6c-0.8-0.5-2-1-3.6-1.5c-2.3-0.8-3.9-1.7-4.8-2.6s-1.3-2.2-1.3-3.7c0-1.7,0.7-3.1,2-4.2s3.1-1.6,5.2-1.6
				c2.1,0,4,0.4,5.8,1.1c0.1,0.1,0.2,0.2,0.1,0.3l-0.4,0.9c0,0.1-0.2,0.2-0.3,0.1c-1.8-0.7-3.6-1.1-5.2-1.1c-1.7,0-3,0.4-4,1.2
				s-1.5,1.8-1.5,3.2c0,0.8,0.2,1.5,0.5,2.1c0.3,0.5,0.8,1,1.5,1.5c0.7,0.4,1.9,0.9,3.6,1.6c1.8,0.6,3.1,1.2,4,1.8s1.5,1.2,2,2
				C152.2,20.5,152.4,21.4,152.4,22.4z"/>
		</g>
	</g>
</g>
</svg>
