<svg id="Camada_1" data-name="Camada 1" xmlns="http://www.w3.org/2000/svg" viewBox="0 0 109.44 31.76"><defs><style>.cls-1{fill:#c70019;}.cls-2{fill:#1a171b;}</style></defs><title>ufmg</title><path class="cls-1" d="M241.1,178.95c0.68-.84,1.34-1.67,2-2.48a33.05,33.05,0,0,1,6.22-5.76,7.89,7.89,0,0,1,3.07-1.39,3,3,0,0,1,1.52.09,1.23,1.23,0,0,1,.9,1.29,7.77,7.77,0,0,1-.46,2.21l-1.89,5.86-0.08.27a0.32,0.32,0,0,0,.25-0.2,46.5,46.5,0,0,1,7-7.11,12.7,12.7,0,0,1,3.87-2.24,4.17,4.17,0,0,1,1.49-.22,1.44,1.44,0,0,1,1.52,1.53,5.32,5.32,0,0,1-.33,1.94q-1.85,5.44-3.72,10.88a6.46,6.46,0,0,0-.23.78,0.6,0.6,0,0,0,.82.73,2.86,2.86,0,0,0,.76-0.38,17.17,17.17,0,0,0,2.51-2,2.06,2.06,0,0,1,.28-0.25,0.36,0.36,0,0,1,.46.05,0.37,0.37,0,0,1,.11.45,0.63,0.63,0,0,1-.11.19,30.36,30.36,0,0,1-3.61,3.65,6.1,6.1,0,0,1-3.2,1.42l-0.19,0a1.42,1.42,0,0,1-1.63-1.92,35,35,0,0,1,1.18-3.58c1-2.77,1.92-5.54,2.88-8.31a2.74,2.74,0,0,0,.18-0.89,0.93,0.93,0,0,0-1-1,3,3,0,0,0-1.37.42,11.53,11.53,0,0,0-2.38,1.74,27.79,27.79,0,0,0-6.84,9c-0.58,1.27-1.07,2.57-1.59,3.86a1,1,0,0,1-.79.69,2.84,2.84,0,0,1-1.58-.08,0.6,0.6,0,0,1-.43-0.9q1.91-5.72,3.82-11.44a7.66,7.66,0,0,0,.43-2.06,2.94,2.94,0,0,0,0-.44,0.77,0.77,0,0,0-.94-0.76,5,5,0,0,0-2.51,1.09,24.34,24.34,0,0,0-3.27,3.13,25.53,25.53,0,0,0-5.93,10.43,1.29,1.29,0,0,1-1.2,1,2.35,2.35,0,0,1-1.39-.15,0.52,0.52,0,0,1-.33-0.78l4.18-12.65a3.87,3.87,0,0,0,.22-1.26,0.68,0.68,0,0,0-.89-0.76,2.92,2.92,0,0,0-1.41.72,16.32,16.32,0,0,0-1.73,1.78,1.31,1.31,0,0,1-.28.25,0.47,0.47,0,0,1-.58-0.05,0.4,0.4,0,0,1-.07-0.52,1,1,0,0,1,.14-0.24,21.12,21.12,0,0,1,4-4,5.62,5.62,0,0,1,3-1.23,1.36,1.36,0,0,1,1.55,1.67,11.18,11.18,0,0,1-.68,2.45c-0.6,1.77-1.21,3.53-1.81,5.29Z" transform="translate(-184.46 -168.84)"/><path class="cls-1" d="M250,200.59H236c-0.28,0-.37-0.05-0.37-0.35,0-2.09,0-4.18,0-6.27,0-.24,0-0.31.3-0.31h28.14c0.26,0,.31.08,0.3,0.32q0,3.12,0,6.24c0,0.3-.06.38-0.37,0.38H250Z" transform="translate(-184.46 -168.84)"/><path class="cls-2" d="M290.9,180.16h2.71c0.21,0,.31,0,0.28.27a2,2,0,0,1,0,.56,0.66,0.66,0,0,1-.51.15,1,1,0,0,0-.8,1.14c0,1.18,0,2.35,0,3.53,0,0.47,0,.95,0,1.42a0.22,0.22,0,0,1-.19.26,23.76,23.76,0,0,1-8,1c-3.77-.31-6.77-2-8.55-5.42a9.67,9.67,0,0,1,5.2-13.41,13.15,13.15,0,0,1,6.37-.72c1.72,0.19,3.42.51,5.12,0.83a0.23,0.23,0,0,1,.24.25q0.1,1.56.22,3.11c0,0.16,0,.24-0.19.22h-0.06a1.21,1.21,0,0,1-1.44-.76,4.79,4.79,0,0,0-4.08-2.5,9,9,0,0,0-3.58.35,6.43,6.43,0,0,0-4.24,3.92,10.64,10.64,0,0,0,.14,8.56,7.68,7.68,0,0,0,9.66,3.87,0.3,0.3,0,0,0,.24-0.31c0-1,0-2.1.05-3.15a5.4,5.4,0,0,0-.06-0.75,1.44,1.44,0,0,0-1.27-1.43,0.25,0.25,0,0,1-.25-0.3c0-.7,0-0.7.68-0.7h2.33Z" transform="translate(-184.46 -168.84)"/><path class="cls-2" d="M186.1,177q0-2.68,0-5.36a1.31,1.31,0,0,0-1.27-1.53,0.36,0.36,0,0,1-.38-0.45c0-.55,0-0.55.55-0.55h5.55c0.27,0,.37,0,0.35.34,0,0.54,0,.54-0.54.68a1.13,1.13,0,0,0-1,1.25q0,5.23,0,10.46a6.16,6.16,0,0,0,.22,1.65,4.21,4.21,0,0,0,3.77,3.12,8.61,8.61,0,0,0,2.79-.08,4.16,4.16,0,0,0,3.36-3.27,12.22,12.22,0,0,0,.36-3.09c0-2.6.07-5.21,0-7.81a5.47,5.47,0,0,0-.16-1.06,1.45,1.45,0,0,0-1.35-1.21c-0.3,0-.45-0.13-0.39-0.45a0.53,0.53,0,0,0,0-.19c0-.27,0-0.35.33-0.35q2.38,0,4.76,0c0.27,0,.33.08,0.33,0.33,0,0.52,0,.52-0.51.68a1.72,1.72,0,0,0-1.12,1.57,6.29,6.29,0,0,0-.07,1.07q0,3.78,0,7.56a10.65,10.65,0,0,1-.49,3.44,5.93,5.93,0,0,1-4.14,4.05,11.56,11.56,0,0,1-7.59-.34,5.11,5.11,0,0,1-3.28-4.41,10.49,10.49,0,0,1-.07-1.35Q186.1,179.36,186.1,177Z" transform="translate(-184.46 -168.84)"/><path class="cls-2" d="M219.51,169c2.32,0.08,4.64,0,7,0,0.25,0,.31.07,0.31,0.31,0,0.82,0,1.64.1,2.45,0,0.23-.05.27-0.27,0.28a0.86,0.86,0,0,1-1-.56,2.14,2.14,0,0,0-1.88-1.14,11.2,11.2,0,0,0-1.6-.11h-4.47c-0.2,0-.27,0-0.27.25q0,3.39,0,6.77c0,0.17,0,.23.22,0.23l4.31,0a3.46,3.46,0,0,0,.68-0.09,1.2,1.2,0,0,0,1-.92,0.3,0.3,0,0,1,.37-0.26c0.49,0,.49,0,0.49.51,0,1,0,2,0,2.93,0,0.21-.06.29-0.27,0.26a1,1,0,0,0-.25,0,0.31,0.31,0,0,1-.38-0.25,1.27,1.27,0,0,0-1.12-.84,6.48,6.48,0,0,0-1.13-.07h-3.65c-0.21,0-.26.06-0.26,0.26,0,2,0,4,0,6a3.87,3.87,0,0,0,0,.66,1.74,1.74,0,0,0,1.81,1.65c0.48,0,.48,0,0.49.53s0,0.4-.42.4h-6.77c-0.25,0-.32-0.06-0.31-0.31,0-.59,0-0.59.57-0.71a1.39,1.39,0,0,0,1.27-1.5c0-.81,0-1.62,0-2.43q0-5.62,0-11.24c0-.1,0-0.21,0-0.31a1.44,1.44,0,0,0-1.38-1.58c-0.47-.08-0.47-0.08-0.47-0.54s0-.53.55-0.53h6.74Z" transform="translate(-184.46 -168.84)"/></svg>